<svg width="13" height="12" viewBox="0 0 13 12" fill="none" xmlns="http://www.w3.org/2000/svg">
<path d="M8.82728 2.54282L10.1562 3.78434M9.68188 1.44908L6.08843 4.8077C5.90276 4.98099 5.77613 5.20178 5.7245 5.44224L5.39258 6.99517L7.05409 6.68435C7.31134 6.63626 7.54727 6.51838 7.73299 6.34479L11.3264 2.98617C11.4344 2.88525 11.5201 2.76543 11.5785 2.63356C11.637 2.50169 11.667 2.36036 11.667 2.21763C11.667 2.07489 11.637 1.93356 11.5785 1.80169C11.5201 1.66982 11.4344 1.55001 11.3264 1.44908C11.2185 1.34815 11.0903 1.26809 10.9492 1.21347C10.8081 1.15885 10.6569 1.13074 10.5042 1.13074C10.3514 1.13074 10.2002 1.15885 10.0591 1.21347C9.91806 1.26809 9.78986 1.34815 9.68188 1.44908V1.44908Z" stroke="white" stroke-linecap="round" stroke-linejoin="round"/>
<path d="M10.4119 8.16812V9.92748C10.4119 10.2386 10.2796 10.5369 10.0443 10.7569C9.80896 10.9768 9.48977 11.1004 9.15695 11.1004H2.25491C1.92209 11.1004 1.6029 10.9768 1.36756 10.7569C1.13221 10.5369 1 10.2386 1 9.92748V3.4765C1 3.16542 1.13221 2.86709 1.36756 2.64713C1.6029 2.42716 1.92209 2.30359 2.25491 2.30359H4.13729" stroke="white" stroke-linecap="round" stroke-linejoin="round"/>
</svg>
