<svg width="18" height="17" viewBox="0 0 18 17" fill="none" xmlns="http://www.w3.org/2000/svg">
<path d="M1.44141 6.37365V4.60319C1.44141 2.83982 2.88931 1.41638 4.68299 1.41638H6.48387" stroke="white" stroke-width="1.5" stroke-linecap="round" stroke-linejoin="round"/>
<path d="M10.8047 1.41638H12.6056C14.3992 1.41638 15.8472 2.83982 15.8472 4.60319V6.37365" stroke="white" stroke-width="1.5" stroke-linecap="round" stroke-linejoin="round"/>
<path d="M15.8475 11.3309V12.3932C15.8475 14.1566 14.3996 15.58 12.6059 15.58H11.5254" stroke="white" stroke-width="1.5" stroke-linecap="round" stroke-linejoin="round"/>
<path d="M6.48387 15.5799H4.68299C2.88931 15.5799 1.44141 14.1565 1.44141 12.3931V10.6227" stroke="white" stroke-width="1.5" stroke-linecap="round" stroke-linejoin="round"/>
<path d="M7.56465 4.95729V6.37365C7.56465 7.08183 7.20448 7.43592 6.48412 7.43592H5.04342C4.32307 7.43592 3.96289 7.08183 3.96289 6.37365V4.95729C3.96289 4.24911 4.32307 3.89502 5.04342 3.89502H6.48412C7.20448 3.89502 7.56465 4.24911 7.56465 4.95729Z" stroke="white" stroke-width="1.5" stroke-linecap="round" stroke-linejoin="round"/>
<path d="M13.3264 4.95729V6.37365C13.3264 7.08183 12.9662 7.43592 12.2458 7.43592H10.8051C10.0848 7.43592 9.72461 7.08183 9.72461 6.37365V4.95729C9.72461 4.24911 10.0848 3.89502 10.8051 3.89502H12.2458C12.9662 3.89502 13.3264 4.24911 13.3264 4.95729Z" stroke="white" stroke-width="1.5" stroke-linecap="round" stroke-linejoin="round"/>
<path d="M7.56465 10.6227V12.0391C7.56465 12.7472 7.20448 13.1013 6.48412 13.1013H5.04342C4.32307 13.1013 3.96289 12.7472 3.96289 12.0391V10.6227C3.96289 9.91452 4.32307 9.56042 5.04342 9.56042H6.48412C7.20448 9.56042 7.56465 9.91452 7.56465 10.6227Z" stroke="white" stroke-width="1.5" stroke-linecap="round" stroke-linejoin="round"/>
<path d="M13.3264 10.6227V12.0391C13.3264 12.7472 12.9662 13.1013 12.2458 13.1013H10.8051C10.0848 13.1013 9.72461 12.7472 9.72461 12.0391V10.6227C9.72461 9.91452 10.0848 9.56042 10.8051 9.56042H12.2458C12.9662 9.56042 13.3264 9.91452 13.3264 10.6227Z" stroke="white" stroke-width="1.5" stroke-linecap="round" stroke-linejoin="round"/>
</svg>
