<svg width="20" height="18" viewBox="0 0 20 18" fill="none" xmlns="http://www.w3.org/2000/svg">
<path d="M19.8483 0.403089C19.7738 0.299297 19.677 0.221983 19.5686 0.179523C19.4601 0.137063 19.3441 0.131076 19.233 0.162212L0.483074 5.41614C0.36086 5.45039 0.250055 5.52804 0.165081 5.639C0.0801073 5.74996 0.0249008 5.88909 0.00664737 6.03827C-0.011606 6.18745 0.00793908 6.33979 0.0627387 6.47544C0.117538 6.61109 0.205054 6.72378 0.313895 6.79883L4.56349 9.72952L6.26051 16.4153C6.28515 16.5124 6.32591 16.6025 6.38032 16.6801C6.43474 16.7577 6.50168 16.8212 6.5771 16.8669C6.65253 16.9126 6.73488 16.9394 6.81917 16.9457C6.90346 16.9521 6.98795 16.9379 7.06754 16.9039L11.3882 15.0593L13.9606 16.978C14.0383 17.0359 14.1257 17.0727 14.2165 17.0857C14.3074 17.0986 14.3995 17.0875 14.4864 17.053C14.5732 17.0184 14.6527 16.9614 14.7193 16.886C14.7858 16.8105 14.8377 16.7184 14.8714 16.6162L19.9562 1.16993C19.9981 1.04245 20.0103 0.903599 19.9913 0.768421C19.9722 0.633243 19.9228 0.5069 19.8483 0.403089ZM2.31295 6.44583L14.48 3.0362L4.92446 8.24681L2.31295 6.44583ZM5.79246 9.42289L15.2999 4.23875L8.32769 11.6386C8.27576 11.6938 8.23182 11.7589 8.19765 11.8314L7.03164 14.3049L5.79246 9.42289ZM8.96483 13.2518L10.0293 14.0458L8.22808 14.8146L8.96483 13.2518ZM13.9843 15.2279L11.7922 13.5927L9.78514 12.0959L17.8238 3.56395L13.9843 15.2279Z" fill="white"/>
</svg>
