<svg width="17" height="16" viewBox="0 0 17 16" fill="none" xmlns="http://www.w3.org/2000/svg">
<g clip-path="url(#clip0_1_2004)">
<path d="M3.96922 3.80754C4.21252 3.12336 4.60906 2.50272 5.12906 1.99223C7.55479 -0.388474 11.6944 0.488305 12.9188 3.64637C12.9709 3.78083 13.0372 3.81061 13.1693 3.81061C13.6324 3.81061 14.1012 3.77995 14.558 3.83864C15.3648 3.94155 15.903 4.59848 15.9057 5.41657C15.9089 7.03145 15.9089 8.64603 15.9057 10.2603C15.9057 11.4098 15.9057 12.5593 15.9057 13.7088C15.9057 14.6963 15.2274 15.369 14.2324 15.369C10.4001 15.369 6.56771 15.369 2.73514 15.369C1.74011 15.369 1.06055 14.6955 1.06055 13.7096C1.06055 10.9619 1.06055 8.21421 1.06055 5.4665C1.05966 4.48023 1.73834 3.81017 2.73426 3.80754H3.96922ZM14.8452 8.53742V7.59582C14.8452 7.15262 14.6491 6.96079 14.1971 6.96079C10.7406 6.96079 7.28409 6.96079 3.82738 6.96079C3.26182 6.96079 2.6967 6.9459 2.12009 6.93802V13.6755C2.12009 14.1309 2.31141 14.3184 2.77668 14.3184H12.484C13.0858 14.3184 13.6876 14.3206 14.2894 14.3184C14.6199 14.3184 14.8408 14.0994 14.8444 13.7731C14.8479 13.4666 14.8444 13.16 14.8444 12.8534C14.8417 12.8156 14.8365 12.778 14.8289 12.7409C14.2717 12.7409 13.7243 12.7501 13.179 12.7409C12.085 12.7194 11.162 11.801 11.1346 10.7184C11.1041 9.50704 12.0461 8.54574 13.2714 8.54005C13.7897 8.53567 14.3075 8.53742 14.8452 8.53742ZM8.19061 5.90577V5.88562C8.15924 5.87774 8.12786 5.87073 8.09649 5.86241C7.42356 5.67978 6.95079 5.13234 6.896 4.47104C6.83944 3.79177 7.20529 3.17777 7.85083 2.89091C7.9392 2.85062 7.95069 2.79938 7.95687 2.71573C7.96681 2.58437 8.02656 2.46162 8.12411 2.37216C8.22166 2.2827 8.34977 2.23317 8.48267 2.23354C8.614 2.23261 8.74081 2.28108 8.83749 2.36919C8.93417 2.4573 8.99354 2.57848 9.0036 2.70828C9.00979 2.82259 9.05751 2.86156 9.14897 2.90711C9.74634 3.20317 10.0587 3.68579 10.0684 4.34841C10.0672 4.48158 10.0141 4.60911 9.92021 4.70441C9.82637 4.79972 9.69903 4.85543 9.56475 4.85994C9.43089 4.86456 9.30013 4.81933 9.19824 4.73317C9.09634 4.647 9.03069 4.52615 9.01421 4.3944C9.00935 4.35673 9.01421 4.31775 9.00758 4.27965C8.99708 4.18008 8.95811 4.08555 8.89525 4.00719C8.83239 3.92883 8.74826 3.86989 8.65275 3.83732C8.55724 3.80475 8.45434 3.79989 8.35614 3.82332C8.25794 3.84675 8.16854 3.8975 8.09845 3.96959C8.02836 4.04167 7.98051 4.1321 7.96051 4.23024C7.94052 4.32837 7.94922 4.43012 7.98559 4.52352C8.02196 4.61691 8.08449 4.69807 8.16582 4.75744C8.24715 4.8168 8.34389 4.85191 8.44467 4.85862C8.52685 4.86563 8.6108 4.863 8.6921 4.8757C9.32217 4.97118 9.74281 5.32548 9.98494 5.90051H12.15C12.4045 4.49907 11.664 2.97456 10.3671 2.21471C9.71787 1.83706 8.96835 1.66341 8.21746 1.71665C7.46658 1.7699 6.74963 2.04754 6.16121 2.51296C4.91432 3.50404 4.62668 5.03906 4.83214 5.90577H8.19061ZM14.8382 9.5885H14.695C14.182 9.5885 13.6682 9.57142 13.1561 9.59726C12.5985 9.62573 12.1791 10.118 12.1951 10.6768C12.2049 10.9419 12.3155 11.1936 12.5048 11.3812C12.694 11.5688 12.9478 11.6786 13.2153 11.6885C13.4804 11.6964 13.7455 11.6907 14.0106 11.6907H14.8391L14.8382 9.5885ZM13.2405 4.86344V5.93818H14.8452C14.8452 5.91803 14.8452 5.85847 14.8452 5.79934C14.8452 5.64081 14.8532 5.48139 14.8399 5.32417C14.8201 5.09074 14.6261 4.87833 14.391 4.86782C14.0057 4.85074 13.6222 4.86344 13.2405 4.86344ZM3.6966 5.90752V4.86125C3.33031 4.86125 2.97727 4.85468 2.62424 4.86344C2.49052 4.86791 2.36364 4.92313 2.26982 5.01767C2.176 5.11222 2.1224 5.23887 2.12009 5.37147C2.11391 5.64387 2.32378 5.89307 2.59994 5.90402C2.96313 5.91803 3.32677 5.90752 3.69748 5.90752H3.6966Z" fill="white"/>
<path d="M8.48428 11.1647C8.30754 11.1647 8.1308 11.1686 7.95407 11.1647C7.81398 11.1647 7.67958 11.1097 7.58024 11.0118C7.48089 10.9139 7.42467 10.7811 7.42385 10.6422C7.42321 10.5737 7.43622 10.5057 7.46214 10.4422C7.48807 10.3786 7.52638 10.3208 7.5749 10.272C7.62342 10.2231 7.68119 10.1843 7.74489 10.1576C7.80859 10.131 7.87697 10.1171 7.94611 10.1167C8.30489 10.1105 8.66382 10.1105 9.02289 10.1167C9.15566 10.1266 9.27979 10.1857 9.3706 10.2823C9.46141 10.3788 9.51226 10.5056 9.51304 10.6376C9.51382 10.7696 9.46447 10.897 9.37481 10.9946C9.28514 11.0922 9.16172 11.1527 9.02908 11.1642C8.84792 11.1699 8.66544 11.1647 8.48428 11.1647Z" fill="white"/>
</g>
<defs>
<clipPath id="clip0_1_2004">
<rect width="17" height="15.9375" fill="white"/>
</clipPath>
</defs>
</svg>
