<svg width="65" height="65" viewBox="0 0 65 65" fill="none" xmlns="http://www.w3.org/2000/svg">
<circle cx="32.5" cy="32.5" r="31.5" fill="black" stroke="white" stroke-width="2"/>
<path d="M46.1961 28.854C47.0048 28.0343 47.4501 26.9441 47.4501 25.7819C47.4514 24.6196 47.0061 23.5281 46.1961 22.707V28.854ZM46.1961 28.854L35.939 39.2686C35.1864 40.0328 34.1838 40.4544 33.1183 40.4544H28.0014C27.7255 40.4544 27.4605 40.3407 27.2679 40.1396L46.1961 28.854ZM45.4842 23.4093L45.4836 23.4087L43.8218 21.7213L45.4842 23.4093ZM45.4842 23.4093C46.1079 24.0414 46.4511 24.8796 46.4501 25.7807V25.7819M45.4842 23.4093L46.4501 25.7819M46.4501 25.7819C46.4501 26.6837 46.1065 27.5208 45.4842 28.1517L45.4836 28.1523M46.4501 25.7819L45.4836 28.1523M45.4836 28.1523L35.2266 38.5669C34.6604 39.1418 33.9138 39.4544 33.1183 39.4544H28.0014C28.001 39.4544 27.996 39.4541 27.9901 39.4479L27.9877 39.4454M45.4836 28.1523L27.9877 39.4454M27.9877 39.4454C27.9825 39.44 27.9762 39.429 27.9766 39.4122C27.9766 39.4122 27.9766 39.4122 27.9766 39.4121L28.105 34.1714C28.1241 33.4054 28.4178 32.689 28.9332 32.1388M27.9877 39.4454L28.9332 32.1388M28.9332 32.1388L28.9857 32.0855L39.193 21.7213C40.4704 20.4264 42.5436 20.4262 43.8212 21.7208L28.9332 32.1388ZM38.3527 24.1121L37.6402 23.3886L36.9277 24.1121L29.0087 32.1536C29.0087 32.1536 29.0087 32.1536 29.0086 32.1537C28.4748 32.6957 28.173 33.4157 28.1546 34.1734C28.1546 34.1734 28.1546 34.1735 28.1546 34.1736L28.0521 38.3495L28.027 39.374H29.0518H33.1183C33.9069 39.374 34.6493 39.0615 35.2036 38.4987L35.2037 38.4986L43.1706 30.4071L43.8615 29.7054L43.1705 29.0038L38.3527 24.1121ZM39.2182 21.7872L39.2175 21.788L38.3766 22.6396L37.6838 23.3412L38.3756 24.0438L43.1933 28.937L43.9049 29.6597L44.6175 28.938L45.4597 28.085L45.4607 28.0841C46.0671 27.4683 46.4011 26.647 46.4011 25.7819C46.4011 24.9163 46.0678 24.0933 45.4607 23.4768L43.7983 21.7889L43.7972 21.7878C42.5353 20.5105 40.4808 20.5113 39.2182 21.7872ZM32.6367 20.8005C32.6395 20.8005 32.6401 20.8008 32.6405 20.801C32.6417 20.8016 32.6448 20.8032 32.6485 20.807C32.6522 20.8108 32.6554 20.8155 32.6576 20.8206C32.6595 20.8252 32.6612 20.8314 32.6612 20.8407C32.6612 20.85 32.6595 20.8562 32.6576 20.8608C32.6554 20.8659 32.6522 20.8706 32.6485 20.8744C32.6448 20.8782 32.6417 20.8798 32.6405 20.8804L32.6404 20.8804C32.64 20.8806 32.6393 20.8809 32.6367 20.8809H27.5293C25.5223 20.8809 23.7917 21.5855 22.5683 22.9027C21.3518 24.2123 20.7199 26.0367 20.7199 28.1347V39.6658C20.7199 41.7638 21.3518 43.5882 22.5683 44.8978C23.7917 46.215 25.5223 46.9196 27.5293 46.9196H39.5826C41.5896 46.9196 43.3204 46.215 44.5442 44.898C45.7611 43.5884 46.3935 41.7639 46.3935 39.6658V34.0792C46.3935 34.0698 46.3952 34.0636 46.397 34.0591C46.3992 34.0539 46.4024 34.0492 46.4061 34.0454C46.4098 34.0416 46.4129 34.04 46.4141 34.0395L46.4142 34.0395C46.4146 34.0393 46.4153 34.0389 46.4179 34.0389C46.4205 34.0389 46.4212 34.0393 46.4217 34.0395L46.4218 34.0395C46.4222 34.0397 46.4228 34.04 46.4236 34.0404C46.4251 34.0414 46.4273 34.0429 46.4298 34.0454C46.4335 34.0492 46.4367 34.0539 46.4388 34.0591C46.4407 34.0636 46.4424 34.0698 46.4424 34.0792V39.6658C46.4424 41.9459 45.7227 43.7701 44.5476 45.016C43.3774 46.2568 41.6852 47 39.5826 47H27.5293C25.4268 47 23.7349 46.2569 22.5651 45.0161C21.3903 43.7703 20.6709 41.946 20.6709 39.6658V28.1347C20.6709 25.8545 21.3903 24.0302 22.5651 22.7843C23.7349 21.5436 25.4268 20.8005 27.5293 20.8005H32.6367Z" fill="white" stroke="white" stroke-width="2"/>
</svg>
