<svg width="75" height="75" viewBox="0 0 75 75" fill="none" xmlns="http://www.w3.org/2000/svg">
<g filter="url(#filter0_d_221_4301)">
<rect x="10" y="6" width="55" height="55" rx="15" fill="url(#paint0_linear_221_4301)"/>
<path d="M21.8633 21.9534C21.8633 20.8686 22.2894 19.8283 23.0478 19.0612C23.8062 18.2942 24.8348 17.8633 25.9074 17.8633H50.1721C51.2447 17.8633 52.2733 18.2942 53.0317 19.0612C53.7901 19.8283 54.2162 20.8686 54.2162 21.9534V38.3136C54.2162 39.3984 53.7901 40.4387 53.0317 41.2058C52.2733 41.9728 51.2447 42.4037 50.1721 42.4037H30.7886C30.2524 42.4038 29.7382 42.6194 29.3591 43.0029L23.5901 48.8374C23.4488 48.9806 23.2687 49.0783 23.0725 49.1179C22.8764 49.1576 22.673 49.1375 22.4881 49.0602C22.3032 48.983 22.1452 48.8519 22.0339 48.6838C21.9227 48.5156 21.8633 48.3178 21.8633 48.1155V21.9534ZM28.9405 23.9984C28.6723 23.9984 28.4152 24.1061 28.2256 24.2979C28.036 24.4896 27.9295 24.7497 27.9295 25.0209C27.9295 25.2921 28.036 25.5522 28.2256 25.7439C28.4152 25.9357 28.6723 26.0434 28.9405 26.0434H47.139C47.4072 26.0434 47.6643 25.9357 47.8539 25.7439C48.0435 25.5522 48.15 25.2921 48.15 25.0209C48.15 24.7497 48.0435 24.4896 47.8539 24.2979C47.6643 24.1061 47.4072 23.9984 47.139 23.9984H28.9405ZM28.9405 29.111C28.6723 29.111 28.4152 29.2187 28.2256 29.4105C28.036 29.6022 27.9295 29.8623 27.9295 30.1335C27.9295 30.4047 28.036 30.6648 28.2256 30.8565C28.4152 31.0483 28.6723 31.156 28.9405 31.156H47.139C47.4072 31.156 47.6643 31.0483 47.8539 30.8565C48.0435 30.6648 48.15 30.4047 48.15 30.1335C48.15 29.8623 48.0435 29.6022 47.8539 29.4105C47.6643 29.2187 47.4072 29.111 47.139 29.111H28.9405ZM28.9405 34.2236C28.6723 34.2236 28.4152 34.3313 28.2256 34.5231C28.036 34.7148 27.9295 34.9749 27.9295 35.2461C27.9295 35.5173 28.036 35.7774 28.2256 35.9691C28.4152 36.1609 28.6723 36.2686 28.9405 36.2686H39.0508C39.3189 36.2686 39.5761 36.1609 39.7657 35.9691C39.9553 35.7774 40.0618 35.5173 40.0618 35.2461C40.0618 34.9749 39.9553 34.7148 39.7657 34.5231C39.5761 34.3313 39.3189 34.2236 39.0508 34.2236H28.9405Z" fill="white"/>
</g>
<defs>
<filter id="filter0_d_221_4301" x="0" y="0" width="75" height="75" filterUnits="userSpaceOnUse" color-interpolation-filters="sRGB">
<feFlood flood-opacity="0" result="BackgroundImageFix"/>
<feColorMatrix in="SourceAlpha" type="matrix" values="0 0 0 0 0 0 0 0 0 0 0 0 0 0 0 0 0 0 127 0" result="hardAlpha"/>
<feOffset dy="4"/>
<feGaussianBlur stdDeviation="5"/>
<feComposite in2="hardAlpha" operator="out"/>
<feColorMatrix type="matrix" values="0 0 0 0 0 0 0 0 0 0 0 0 0 0 0 0 0 0 0.3 0"/>
<feBlend mode="normal" in2="BackgroundImageFix" result="effect1_dropShadow_221_4301"/>
<feBlend mode="normal" in="SourceGraphic" in2="effect1_dropShadow_221_4301" result="shape"/>
</filter>
<linearGradient id="paint0_linear_221_4301" x1="37.5" y1="6" x2="37.5" y2="61" gradientUnits="userSpaceOnUse">
<stop stop-color="#2196F3"/>
<stop offset="1" stop-color="#0C539D"/>
</linearGradient>
</defs>
</svg>
