<svg width="55" height="55" viewBox="0 0 55 55" fill="none" xmlns="http://www.w3.org/2000/svg">
<rect width="55" height="55" rx="15" fill="#3599F9"/>
<path d="M35.5593 31.491C35.6973 30.3522 35.8009 29.2134 35.8009 28.0401C35.8009 26.8667 35.6973 25.7279 35.5593 24.5891H41.3914C41.6675 25.6934 41.8401 26.8495 41.8401 28.0401C41.8401 29.2306 41.6675 30.3867 41.3914 31.491H35.5593ZM32.5052 41.0848C33.5405 39.1695 34.3342 37.0989 34.8863 34.942H39.9765C38.3048 37.8206 35.6527 40.0012 32.5052 41.0848ZM32.0738 31.491H23.9985C23.826 30.3522 23.7224 29.2134 23.7224 28.0401C23.7224 26.8667 23.826 25.7106 23.9985 24.5891H32.0738C32.2291 25.7106 32.3499 26.8667 32.3499 28.0401C32.3499 29.2134 32.2291 30.3522 32.0738 31.491ZM28.0362 41.775C26.604 39.7044 25.4479 37.4095 24.7405 34.942H31.3318C30.6244 37.4095 29.4683 39.7044 28.0362 41.775ZM21.1342 21.1381H16.0958C17.7503 18.2517 20.4005 16.0677 23.5499 14.9954C22.5146 16.9106 21.7381 18.9812 21.1342 21.1381ZM16.0958 34.942H21.1342C21.7381 37.0989 22.5146 39.1695 23.5499 41.0848C20.4071 40.0006 17.7606 37.8197 16.0958 34.942ZM14.6809 31.491C14.4048 30.3867 14.2322 29.2306 14.2322 28.0401C14.2322 26.8495 14.4048 25.6934 14.6809 24.5891H20.513C20.375 25.7279 20.2714 26.8667 20.2714 28.0401C20.2714 29.2134 20.375 30.3522 20.513 31.491H14.6809ZM28.0362 14.2879C29.4683 16.3585 30.6244 18.6706 31.3318 21.1381H24.7405C25.4479 18.6706 26.604 16.3585 28.0362 14.2879ZM39.9765 21.1381H34.8863C34.3463 19.001 33.5466 16.9381 32.5052 14.9954C35.6801 16.0824 38.3201 18.2738 39.9765 21.1381ZM28.0362 10.7852C18.4942 10.7852 10.7812 18.5499 10.7812 28.0401C10.7812 32.6163 12.5992 37.0052 15.8351 40.2411C17.4374 41.8434 19.3395 43.1144 21.433 43.9815C23.5264 44.8487 25.7702 45.295 28.0362 45.295C32.6124 45.295 37.0013 43.477 40.2372 40.2411C43.4731 37.0052 45.2911 32.6163 45.2911 28.0401C45.2911 25.7741 44.8447 23.5304 43.9776 21.4369C43.1105 19.3434 41.8395 17.4413 40.2372 15.839C38.6349 14.2367 36.7328 12.9657 34.6393 12.0986C32.5459 11.2315 30.3021 10.7852 28.0362 10.7852Z" fill="white"/>
</svg>
