<svg width="24" height="19" viewBox="0 0 24 19" fill="none" xmlns="http://www.w3.org/2000/svg">
<g clip-path="url(#clip0_53_2518)">
<path d="M20.4887 3H16.0426C14.2357 3 12.7656 4.47004 12.7656 6.27696V10.723C12.7656 12.53 14.2357 14 16.0426 14H20.4887C22.2956 14 23.7656 12.53 23.7656 10.723V6.27696C23.7656 4.47004 22.2956 3 20.4887 3ZM22.659 10.723C22.659 11.9217 21.6873 12.8934 20.4887 12.8934H16.0426C14.8439 12.8934 13.8722 11.9217 13.8722 10.723V6.27696C13.8722 5.07829 14.8439 4.1066 16.0426 4.1066H20.4887C21.6873 4.1066 22.659 5.07829 22.659 6.27696V10.723Z" fill="url(#paint0_linear_53_2518)"/>
<path d="M18.2659 5.65503C16.6972 5.65503 15.4209 6.93129 15.4209 8.5C15.4209 10.0687 16.6972 11.345 18.2659 11.345C19.8346 11.345 21.1109 10.0687 21.1109 8.5C21.1109 6.93127 19.8346 5.65503 18.2659 5.65503ZM18.2659 10.2384C17.3058 10.2384 16.5275 9.46012 16.5275 8.50002C16.5275 7.53993 17.3058 6.76163 18.2659 6.76163C19.226 6.76163 20.0043 7.53993 20.0043 8.50002C20.0043 9.4601 19.226 10.2384 18.2659 10.2384Z" fill="url(#paint1_linear_53_2518)"/>
<path d="M21.1163 6.35809C21.4928 6.35809 21.798 6.05288 21.798 5.67639C21.798 5.2999 21.4928 4.99469 21.1163 4.99469C20.7398 4.99469 20.4346 5.2999 20.4346 5.67639C20.4346 6.05288 20.7398 6.35809 21.1163 6.35809Z" fill="url(#paint2_linear_53_2518)"/>
</g>
<g filter="url(#filter0_d_53_2518)">
<rect x="7" y="4" width="10.7639" height="11" rx="5" fill="#0EA2F3"/>
<path d="M16.2872 7.46676C16.0313 7.58007 15.756 7.65561 15.4656 7.6914C15.7608 7.51624 15.988 7.23683 16.0946 6.90663C15.8184 7.06843 15.5123 7.18735 15.1868 7.25003C14.9268 6.97459 14.5558 6.80371 14.145 6.80371C13.3558 6.80371 12.716 7.43756 12.716 8.2192C12.716 8.32987 12.729 8.43757 12.7532 8.54214C11.5659 8.4826 10.5127 7.91835 9.80819 7.062C9.68444 7.27131 9.61481 7.51624 9.61481 7.77486C9.61481 8.2662 9.86643 8.69883 10.2502 8.95366C10.0159 8.94657 9.79548 8.88142 9.60243 8.77685C9.60243 8.78114 9.60243 8.7874 9.60243 8.79351C9.60243 9.48014 10.0951 10.052 10.7482 10.1821C10.6289 10.2148 10.5027 10.2329 10.3726 10.2329C10.2804 10.2329 10.1905 10.2225 10.1034 10.2068C10.2852 10.768 10.8127 11.1782 11.4377 11.1904C10.9487 11.5694 10.3327 11.7963 9.66299 11.7963C9.54732 11.7963 9.43413 11.7897 9.32227 11.7762C9.95536 12.1768 10.7066 12.4116 11.5131 12.4116C14.141 12.4116 15.5788 10.2543 15.5788 8.38281C15.5788 8.32146 15.5769 8.26043 15.5741 8.20006C15.8545 8.00198 16.0963 7.75226 16.2872 7.46676Z" fill="white"/>
</g>
<defs>
<filter id="filter0_d_53_2518" x="0" y="0" width="18.7637" height="19" filterUnits="userSpaceOnUse" color-interpolation-filters="sRGB">
<feFlood flood-opacity="0" result="BackgroundImageFix"/>
<feColorMatrix in="SourceAlpha" type="matrix" values="0 0 0 0 0 0 0 0 0 0 0 0 0 0 0 0 0 0 127 0" result="hardAlpha"/>
<feOffset dx="-3"/>
<feGaussianBlur stdDeviation="2"/>
<feComposite in2="hardAlpha" operator="out"/>
<feColorMatrix type="matrix" values="0 0 0 0 0 0 0 0 0 0 0 0 0 0 0 0 0 0 0.15 0"/>
<feBlend mode="normal" in2="BackgroundImageFix" result="effect1_dropShadow_53_2518"/>
<feBlend mode="normal" in="SourceGraphic" in2="effect1_dropShadow_53_2518" result="shape"/>
</filter>
<linearGradient id="paint0_linear_53_2518" x1="18.2656" y1="13.968" x2="18.2656" y2="3.08543" gradientUnits="userSpaceOnUse">
<stop stop-color="#E09B3D"/>
<stop offset="0.3" stop-color="#C74C4D"/>
<stop offset="0.6" stop-color="#C21975"/>
<stop offset="1" stop-color="#7024C4"/>
</linearGradient>
<linearGradient id="paint1_linear_53_2518" x1="18.2659" y1="13.968" x2="18.2659" y2="3.08546" gradientUnits="userSpaceOnUse">
<stop stop-color="#E09B3D"/>
<stop offset="0.3" stop-color="#C74C4D"/>
<stop offset="0.6" stop-color="#C21975"/>
<stop offset="1" stop-color="#7024C4"/>
</linearGradient>
<linearGradient id="paint2_linear_53_2518" x1="21.1163" y1="13.9679" x2="21.1163" y2="3.08542" gradientUnits="userSpaceOnUse">
<stop stop-color="#E09B3D"/>
<stop offset="0.3" stop-color="#C74C4D"/>
<stop offset="0.6" stop-color="#C21975"/>
<stop offset="1" stop-color="#7024C4"/>
</linearGradient>
<clipPath id="clip0_53_2518">
<rect width="11" height="11" fill="white" transform="translate(12.7656 3)"/>
</clipPath>
</defs>
</svg>
