<svg width="76" height="38" viewBox="0 0 76 38" fill="none" xmlns="http://www.w3.org/2000/svg">
<g filter="url(#filter0_d_53_2583)">
<rect x="10" y="6.00012" width="56" height="18" rx="9" fill="#E5E5E5"/>
</g>
<g filter="url(#filter1_d_53_2583)">
<rect x="17" y="9" width="13.7786" height="9.63013" rx="4.81507" fill="#0288D1"/>
</g>
<path d="M20.3906 12.8399H21.8921V16.408H20.3906V12.8399ZM21.1369 12.4202H21.1285C20.6804 12.4202 20.3906 12.1868 20.3906 11.8952C20.3906 11.5974 20.6894 11.3707 21.1456 11.3707C21.6023 11.3707 21.8837 11.5974 21.8921 11.8952C21.8921 12.1866 21.6023 12.4202 21.1369 12.4202ZM27.5979 16.408H26.0964V14.4983C26.0964 14.0369 25.7285 13.7221 25.1378 13.7221C24.687 13.7221 24.4432 13.9345 24.3249 14.1398C24.2816 14.2132 24.2945 14.4164 24.2945 14.519V16.408H22.793V12.8399H24.2945V13.389C24.5111 13.1548 24.8501 12.8399 25.7174 12.8399C26.7919 12.8399 27.5976 13.3122 27.5976 14.3667L27.5979 16.408Z" fill="white"/>
<path d="M37.5879 14.5143V15.0001H35.8032V14.5143H37.5879ZM35.9741 11.4454V15.0001H35.3613V11.4454H35.9741ZM38.6328 12.3585V15.0001H38.042V12.3585H38.6328ZM38.0029 11.6652C38.0029 11.5756 38.0322 11.5016 38.0908 11.443C38.151 11.3828 38.234 11.3527 38.3398 11.3527C38.444 11.3527 38.5262 11.3828 38.5864 11.443C38.6466 11.5016 38.6768 11.5756 38.6768 11.6652C38.6768 11.7531 38.6466 11.8263 38.5864 11.8849C38.5262 11.9435 38.444 11.9728 38.3398 11.9728C38.234 11.9728 38.151 11.9435 38.0908 11.8849C38.0322 11.8263 38.0029 11.7531 38.0029 11.6652ZM39.8608 12.9225V15.0001H39.2725V12.3585H39.8267L39.8608 12.9225ZM39.7559 13.5817L39.5654 13.5792C39.5671 13.392 39.5931 13.2203 39.6436 13.0641C39.6956 12.9078 39.7673 12.7736 39.8584 12.6613C39.9512 12.549 40.0618 12.4627 40.1904 12.4025C40.319 12.3406 40.4622 12.3097 40.6201 12.3097C40.7471 12.3097 40.8618 12.3276 40.9644 12.3634C41.0685 12.3976 41.1572 12.4537 41.2305 12.5319C41.3053 12.61 41.3623 12.7117 41.4014 12.837C41.4404 12.9607 41.46 13.1129 41.46 13.2936V15.0001H40.8691V13.2911C40.8691 13.1642 40.8504 13.0641 40.813 12.9908C40.7772 12.916 40.7243 12.8631 40.6543 12.8322C40.5859 12.7996 40.5005 12.7833 40.3979 12.7833C40.297 12.7833 40.2067 12.8045 40.127 12.8468C40.0472 12.8891 39.9797 12.9469 39.9243 13.0201C39.8706 13.0934 39.8291 13.178 39.7998 13.274C39.7705 13.3701 39.7559 13.4726 39.7559 13.5817ZM42.6538 11.2501V15.0001H42.063V11.2501H42.6538ZM44.2944 12.3585L43.1445 13.6329L42.5146 14.2775L42.3608 13.7794L42.8369 13.191L43.584 12.3585H44.2944ZM43.7109 15.0001L42.854 13.7599L43.2251 13.3473L44.3921 15.0001H43.7109ZM46.2305 14.4532V11.2501H46.8213V15.0001H46.2866L46.2305 14.4532ZM44.5117 13.7086V13.6573C44.5117 13.4572 44.5353 13.2749 44.5825 13.1105C44.6297 12.9445 44.6981 12.802 44.7876 12.6832C44.8771 12.5628 44.9862 12.4708 45.1147 12.4073C45.2433 12.3422 45.3882 12.3097 45.5493 12.3097C45.7088 12.3097 45.8488 12.3406 45.9692 12.4025C46.0897 12.4643 46.1922 12.553 46.2769 12.6686C46.3615 12.7825 46.429 12.9192 46.4795 13.0787C46.5299 13.2366 46.5658 13.4124 46.5869 13.6061V13.7697C46.5658 13.9585 46.5299 14.131 46.4795 14.2872C46.429 14.4435 46.3615 14.5786 46.2769 14.6925C46.1922 14.8064 46.0889 14.8943 45.9668 14.9562C45.8464 15.018 45.7056 15.049 45.5444 15.049C45.3849 15.049 45.2409 15.0156 45.1123 14.9489C44.9854 14.8821 44.8771 14.7885 44.7876 14.6681C44.6981 14.5476 44.6297 14.406 44.5825 14.2433C44.5353 14.0789 44.5117 13.9007 44.5117 13.7086ZM45.1001 13.6573V13.7086C45.1001 13.8291 45.1107 13.9414 45.1318 14.0455C45.1546 14.1497 45.1896 14.2417 45.2368 14.3214C45.284 14.3995 45.3451 14.4614 45.4199 14.507C45.4964 14.5509 45.5876 14.5729 45.6934 14.5729C45.8268 14.5729 45.9367 14.5436 46.0229 14.485C46.1092 14.4264 46.1768 14.3475 46.2256 14.2482C46.276 14.1473 46.3102 14.035 46.3281 13.9113V13.4694C46.3184 13.3733 46.298 13.2838 46.2671 13.2008C46.2378 13.1178 46.1979 13.0454 46.1475 12.9835C46.097 12.92 46.0343 12.8712 45.9595 12.837C45.8862 12.8012 45.7992 12.7833 45.6982 12.7833C45.5908 12.7833 45.4997 12.8061 45.4248 12.8517C45.3499 12.8973 45.2881 12.9599 45.2393 13.0397C45.1921 13.1194 45.1571 13.2122 45.1343 13.318C45.1115 13.4238 45.1001 13.5369 45.1001 13.6573ZM48.0664 12.3585V15.0001H47.4756V12.3585H48.0664ZM47.4365 11.6652C47.4365 11.5756 47.4658 11.5016 47.5244 11.443C47.5846 11.3828 47.6676 11.3527 47.7734 11.3527C47.8776 11.3527 47.9598 11.3828 48.02 11.443C48.0802 11.5016 48.1104 11.5756 48.1104 11.6652C48.1104 11.7531 48.0802 11.8263 48.02 11.8849C47.9598 11.9435 47.8776 11.9728 47.7734 11.9728C47.6676 11.9728 47.5846 11.9435 47.5244 11.8849C47.4658 11.8263 47.4365 11.7531 47.4365 11.6652ZM49.2944 12.9225V15.0001H48.7061V12.3585H49.2603L49.2944 12.9225ZM49.1895 13.5817L48.999 13.5792C49.0007 13.392 49.0267 13.2203 49.0771 13.0641C49.1292 12.9078 49.2008 12.7736 49.292 12.6613C49.3848 12.549 49.4954 12.4627 49.624 12.4025C49.7526 12.3406 49.8958 12.3097 50.0537 12.3097C50.1807 12.3097 50.2954 12.3276 50.3979 12.3634C50.5021 12.3976 50.5908 12.4537 50.6641 12.5319C50.7389 12.61 50.7959 12.7117 50.835 12.837C50.874 12.9607 50.8936 13.1129 50.8936 13.2936V15.0001H50.3027V13.2911C50.3027 13.1642 50.284 13.0641 50.2466 12.9908C50.2108 12.916 50.1579 12.8631 50.0879 12.8322C50.0195 12.7996 49.9341 12.7833 49.8315 12.7833C49.7306 12.7833 49.6403 12.8045 49.5605 12.8468C49.4808 12.8891 49.4132 12.9469 49.3579 13.0201C49.3042 13.0934 49.2627 13.178 49.2334 13.274C49.2041 13.3701 49.1895 13.4726 49.1895 13.5817Z" fill="#493F3F"/>
<path d="M35.8247 19.0001H35.3794L35.3823 18.7701H35.8247C35.9771 18.7701 36.104 18.7384 36.2056 18.6749C36.3071 18.6105 36.3833 18.5206 36.4341 18.4054C36.4858 18.2892 36.5117 18.1534 36.5117 17.9982V17.8678C36.5117 17.7457 36.4971 17.6373 36.4678 17.5426C36.4385 17.4469 36.3955 17.3663 36.3389 17.3009C36.2822 17.2345 36.2129 17.1842 36.1309 17.15C36.0498 17.1158 35.9565 17.0988 35.8511 17.0988H35.3706V16.8673H35.8511C35.9907 16.8673 36.1182 16.8907 36.2334 16.9376C36.3486 16.9835 36.4478 17.0504 36.5308 17.1383C36.6147 17.2252 36.6792 17.3307 36.7241 17.4547C36.769 17.5778 36.7915 17.7164 36.7915 17.8707V17.9982C36.7915 18.1525 36.769 18.2916 36.7241 18.4156C36.6792 18.5387 36.6143 18.6437 36.5293 18.7306C36.4453 18.8175 36.3438 18.8844 36.2246 18.9313C36.1064 18.9772 35.9731 19.0001 35.8247 19.0001ZM35.5303 16.8673V19.0001H35.2476V16.8673H35.5303ZM37.833 19.0294C37.7227 19.0294 37.6226 19.0109 37.5327 18.9738C37.4438 18.9357 37.3672 18.8824 37.3027 18.8141C37.2393 18.7457 37.1904 18.6647 37.1562 18.5709C37.1221 18.4772 37.105 18.3746 37.105 18.2633V18.2018C37.105 18.0729 37.124 17.9581 37.1621 17.8575C37.2002 17.756 37.252 17.67 37.3174 17.5997C37.3828 17.5294 37.457 17.4762 37.54 17.4401C37.623 17.4039 37.709 17.3859 37.7979 17.3859C37.9111 17.3859 38.0088 17.4054 38.0908 17.4445C38.1738 17.4835 38.2417 17.5382 38.2944 17.6085C38.3472 17.6779 38.3862 17.7599 38.4116 17.8546C38.437 17.9484 38.4497 18.0509 38.4497 18.1622V18.2838H37.2661V18.0626H38.1787V18.0421C38.1748 17.9718 38.1602 17.9034 38.1348 17.837C38.1104 17.7706 38.0713 17.7159 38.0176 17.673C37.9639 17.63 37.8906 17.6085 37.7979 17.6085C37.7363 17.6085 37.6797 17.6217 37.6279 17.6481C37.5762 17.6735 37.5317 17.7115 37.4946 17.7623C37.4575 17.8131 37.4287 17.8751 37.4082 17.9484C37.3877 18.0216 37.3774 18.1061 37.3774 18.2018V18.2633C37.3774 18.3385 37.3877 18.4093 37.4082 18.4757C37.4297 18.5411 37.4604 18.5988 37.5005 18.6486C37.5415 18.6984 37.5908 18.7374 37.6484 18.7657C37.707 18.7941 37.7734 18.8082 37.8477 18.8082C37.9434 18.8082 38.0244 18.7887 38.0908 18.7496C38.1572 18.7106 38.2153 18.6583 38.2651 18.5929L38.4292 18.7233C38.395 18.775 38.3516 18.8243 38.2988 18.8712C38.2461 18.9181 38.1812 18.9562 38.104 18.9855C38.0278 19.0148 37.9375 19.0294 37.833 19.0294ZM39.689 18.5797C39.689 18.5406 39.6802 18.5045 39.6626 18.4713C39.646 18.4371 39.6113 18.4064 39.5586 18.379C39.5068 18.3507 39.4287 18.3263 39.3242 18.3058C39.2363 18.2872 39.1567 18.2653 39.0854 18.2399C39.0151 18.2145 38.9551 18.1837 38.9053 18.1476C38.8564 18.1115 38.8188 18.069 38.7925 18.0201C38.7661 17.9713 38.7529 17.9142 38.7529 17.8488C38.7529 17.7863 38.7666 17.7272 38.7939 17.6715C38.8223 17.6158 38.8618 17.5665 38.9126 17.5236C38.9644 17.4806 39.0264 17.4469 39.0986 17.4225C39.1709 17.3981 39.2515 17.3859 39.3403 17.3859C39.4673 17.3859 39.5757 17.4083 39.6655 17.4532C39.7554 17.4982 39.8242 17.5582 39.8721 17.6334C39.9199 17.7076 39.9438 17.7902 39.9438 17.881H39.6729C39.6729 17.837 39.6597 17.7946 39.6333 17.7535C39.6079 17.7115 39.5703 17.6769 39.5205 17.6495C39.4717 17.6222 39.4116 17.6085 39.3403 17.6085C39.2651 17.6085 39.2041 17.6202 39.1572 17.6437C39.1113 17.6661 39.0776 17.6949 39.0562 17.7301C39.0356 17.7653 39.0254 17.8024 39.0254 17.8414C39.0254 17.8707 39.0303 17.8971 39.04 17.9205C39.0508 17.943 39.0693 17.964 39.0957 17.9835C39.1221 18.0021 39.1592 18.0197 39.207 18.0363C39.2549 18.0529 39.3159 18.0695 39.3901 18.0861C39.52 18.1154 39.627 18.1505 39.7109 18.1915C39.7949 18.2325 39.8574 18.2828 39.8984 18.3424C39.9395 18.402 39.96 18.4742 39.96 18.5592C39.96 18.6285 39.9453 18.692 39.916 18.7496C39.8877 18.8073 39.8462 18.8571 39.7915 18.899C39.7378 18.9401 39.6733 18.9723 39.5981 18.9957C39.5239 19.0182 39.4404 19.0294 39.3477 19.0294C39.208 19.0294 39.0898 19.0045 38.9932 18.9547C38.8965 18.9049 38.8232 18.8405 38.7734 18.7614C38.7236 18.6823 38.6987 18.5988 38.6987 18.5109H38.9712C38.9751 18.5851 38.9966 18.6442 39.0356 18.6881C39.0747 18.7311 39.1226 18.7618 39.1792 18.7804C39.2358 18.798 39.292 18.8068 39.3477 18.8068C39.4219 18.8068 39.4839 18.797 39.5337 18.7775C39.5845 18.7579 39.623 18.7311 39.6494 18.6969C39.6758 18.6627 39.689 18.6237 39.689 18.5797ZM40.9502 18.8068C41.0146 18.8068 41.0742 18.7936 41.1289 18.7672C41.1836 18.7408 41.2285 18.7047 41.2637 18.6588C41.2988 18.6119 41.3188 18.5587 41.3237 18.4991H41.5815C41.5767 18.5929 41.5449 18.6803 41.4863 18.7614C41.4287 18.8414 41.353 18.9064 41.2593 18.9562C41.1655 19.005 41.0625 19.0294 40.9502 19.0294C40.8311 19.0294 40.7271 19.0084 40.6382 18.9664C40.5503 18.9244 40.4771 18.8668 40.4185 18.7936C40.3608 18.7203 40.3174 18.6364 40.2881 18.5416C40.2598 18.4459 40.2456 18.3448 40.2456 18.2384V18.1769C40.2456 18.0704 40.2598 17.9698 40.2881 17.8751C40.3174 17.7794 40.3608 17.6949 40.4185 17.6217C40.4771 17.5485 40.5503 17.4908 40.6382 17.4489C40.7271 17.4069 40.8311 17.3859 40.9502 17.3859C41.0742 17.3859 41.1826 17.4113 41.2754 17.462C41.3682 17.5118 41.4409 17.5802 41.4937 17.6671C41.5474 17.7531 41.5767 17.8507 41.5815 17.9601H41.3237C41.3188 17.8947 41.3003 17.8356 41.2681 17.7828C41.2368 17.7301 41.1938 17.6881 41.1392 17.6569C41.0854 17.6246 41.0225 17.6085 40.9502 17.6085C40.8672 17.6085 40.7974 17.6251 40.7407 17.6583C40.6851 17.6906 40.6406 17.7345 40.6074 17.7902C40.5752 17.8448 40.5518 17.9059 40.5371 17.9733C40.5234 18.0397 40.5166 18.1075 40.5166 18.1769V18.2384C40.5166 18.3077 40.5234 18.3761 40.5371 18.4435C40.5508 18.5109 40.5737 18.5719 40.606 18.6266C40.6392 18.6813 40.6836 18.7252 40.7393 18.7584C40.7959 18.7906 40.8662 18.8068 40.9502 18.8068ZM42.1572 17.6642V19.0001H41.8862V17.4152H42.1499L42.1572 17.6642ZM42.6523 17.4064L42.6509 17.6583C42.6284 17.6534 42.6069 17.6505 42.5864 17.6495C42.5669 17.6476 42.5444 17.6466 42.519 17.6466C42.4565 17.6466 42.4014 17.6564 42.3535 17.6759C42.3057 17.6954 42.2651 17.7228 42.2319 17.7579C42.1987 17.7931 42.1724 17.8351 42.1528 17.8839C42.1343 17.9318 42.1221 17.9845 42.1162 18.0421L42.04 18.0861C42.04 17.9904 42.0493 17.9005 42.0679 17.8165C42.0874 17.7325 42.1172 17.6583 42.1572 17.5939C42.1973 17.5284 42.248 17.4777 42.3096 17.4415C42.3721 17.4044 42.4463 17.3859 42.5322 17.3859C42.5518 17.3859 42.5742 17.3883 42.5996 17.3932C42.625 17.3971 42.6426 17.4015 42.6523 17.4064ZM43.1973 17.4152V19.0001H42.9248V17.4152H43.1973ZM42.9043 16.9948C42.9043 16.9508 42.9175 16.9137 42.9438 16.8834C42.9712 16.8531 43.0112 16.838 43.064 16.838C43.1157 16.838 43.1553 16.8531 43.1826 16.8834C43.2109 16.9137 43.2251 16.9508 43.2251 16.9948C43.2251 17.0367 43.2109 17.0729 43.1826 17.1031C43.1553 17.1324 43.1157 17.1471 43.064 17.1471C43.0112 17.1471 42.9712 17.1324 42.9438 17.1031C42.9175 17.0729 42.9043 17.0367 42.9043 16.9948ZM43.9033 17.7198V19.6095H43.6309V17.4152H43.8799L43.9033 17.7198ZM44.9712 18.1945V18.2252C44.9712 18.3405 44.9575 18.4474 44.9302 18.546C44.9028 18.6437 44.8628 18.7286 44.8101 18.8009C44.7583 18.8732 44.6943 18.9293 44.6182 18.9694C44.542 19.0094 44.4546 19.0294 44.356 19.0294C44.2554 19.0294 44.1665 19.0128 44.0894 18.9796C44.0122 18.9464 43.9468 18.8981 43.8931 18.8346C43.8394 18.7711 43.7964 18.6949 43.7642 18.6061C43.7329 18.5172 43.7114 18.4171 43.6997 18.3058V18.1417C43.7114 18.0245 43.7334 17.9196 43.7656 17.8268C43.7979 17.734 43.8403 17.6549 43.8931 17.5895C43.9468 17.5231 44.0117 17.4728 44.0879 17.4386C44.1641 17.4034 44.252 17.3859 44.3516 17.3859C44.4512 17.3859 44.5396 17.4054 44.6167 17.4445C44.6938 17.4825 44.7588 17.5372 44.8115 17.6085C44.8643 17.6798 44.9038 17.7653 44.9302 17.8649C44.9575 17.9635 44.9712 18.0734 44.9712 18.1945ZM44.6987 18.2252V18.1945C44.6987 18.1154 44.6904 18.0411 44.6738 17.9718C44.6572 17.9015 44.6313 17.84 44.5962 17.7872C44.562 17.7335 44.5181 17.6915 44.4644 17.6613C44.4106 17.63 44.3467 17.6144 44.2725 17.6144C44.2041 17.6144 44.1445 17.6261 44.0938 17.6495C44.0439 17.673 44.0015 17.7047 43.9663 17.7448C43.9312 17.7838 43.9023 17.8287 43.8799 17.8795C43.8584 17.9293 43.8423 17.9811 43.8315 18.0348V18.4142C43.8511 18.4825 43.8784 18.547 43.9136 18.6075C43.9487 18.6671 43.9956 18.7155 44.0542 18.7526C44.1128 18.7887 44.1865 18.8068 44.2754 18.8068C44.3486 18.8068 44.4116 18.7916 44.4644 18.7614C44.5181 18.7301 44.562 18.6876 44.5962 18.6339C44.6313 18.5802 44.6572 18.5187 44.6738 18.4493C44.6904 18.379 44.6987 18.3043 44.6987 18.2252ZM45.9805 17.4152V17.6232H45.1235V17.4152H45.9805ZM45.4136 17.0299H45.6846V18.6075C45.6846 18.6613 45.6929 18.7018 45.7095 18.7291C45.7261 18.7565 45.7476 18.7745 45.7739 18.7833C45.8003 18.7921 45.8286 18.7965 45.8589 18.7965C45.8813 18.7965 45.9048 18.7946 45.9292 18.7906C45.9546 18.7858 45.9736 18.7819 45.9863 18.7789L45.9878 19.0001C45.9663 19.007 45.938 19.0133 45.9028 19.0192C45.8687 19.026 45.8271 19.0294 45.7783 19.0294C45.7119 19.0294 45.6509 19.0162 45.5952 18.9899C45.5396 18.9635 45.4951 18.9196 45.4619 18.858C45.4297 18.7955 45.4136 18.7115 45.4136 18.6061V17.0299ZM46.5928 17.4152V19.0001H46.3203V17.4152H46.5928ZM46.2998 16.9948C46.2998 16.9508 46.313 16.9137 46.3394 16.8834C46.3667 16.8531 46.4067 16.838 46.4595 16.838C46.5112 16.838 46.5508 16.8531 46.5781 16.8834C46.6064 16.9137 46.6206 16.9508 46.6206 16.9948C46.6206 17.0367 46.6064 17.0729 46.5781 17.1031C46.5508 17.1324 46.5112 17.1471 46.4595 17.1471C46.4067 17.1471 46.3667 17.1324 46.3394 17.1031C46.313 17.0729 46.2998 17.0367 46.2998 16.9948ZM46.9561 18.2252V18.1915C46.9561 18.0773 46.9727 17.9713 47.0059 17.8737C47.0391 17.775 47.0869 17.6896 47.1494 17.6173C47.2119 17.5441 47.2876 17.4874 47.3765 17.4474C47.4653 17.4064 47.5649 17.3859 47.6753 17.3859C47.7866 17.3859 47.8867 17.4064 47.9756 17.4474C48.0654 17.4874 48.1416 17.5441 48.2041 17.6173C48.2676 17.6896 48.3159 17.775 48.3491 17.8737C48.3823 17.9713 48.3989 18.0773 48.3989 18.1915V18.2252C48.3989 18.3395 48.3823 18.4454 48.3491 18.5431C48.3159 18.6407 48.2676 18.7262 48.2041 18.7994C48.1416 18.8717 48.0659 18.9283 47.9771 18.9694C47.8892 19.0094 47.7896 19.0294 47.6782 19.0294C47.5669 19.0294 47.4668 19.0094 47.3779 18.9694C47.2891 18.9283 47.2129 18.8717 47.1494 18.7994C47.0869 18.7262 47.0391 18.6407 47.0059 18.5431C46.9727 18.4454 46.9561 18.3395 46.9561 18.2252ZM47.2271 18.1915V18.2252C47.2271 18.3043 47.2363 18.379 47.2549 18.4493C47.2734 18.5187 47.3013 18.5802 47.3384 18.6339C47.3765 18.6876 47.4238 18.7301 47.4805 18.7614C47.5371 18.7916 47.603 18.8068 47.6782 18.8068C47.7524 18.8068 47.8174 18.7916 47.873 18.7614C47.9297 18.7301 47.9766 18.6876 48.0137 18.6339C48.0508 18.5802 48.0786 18.5187 48.0972 18.4493C48.1167 18.379 48.1265 18.3043 48.1265 18.2252V18.1915C48.1265 18.1134 48.1167 18.0397 48.0972 17.9703C48.0786 17.9 48.0503 17.838 48.0122 17.7843C47.9751 17.7296 47.9282 17.6866 47.8716 17.6554C47.8159 17.6241 47.7505 17.6085 47.6753 17.6085C47.6011 17.6085 47.5356 17.6241 47.479 17.6554C47.4233 17.6866 47.3765 17.7296 47.3384 17.7843C47.3013 17.838 47.2734 17.9 47.2549 17.9703C47.2363 18.0397 47.2271 18.1134 47.2271 18.1915ZM49.0098 17.7535V19.0001H48.7388V17.4152H48.9951L49.0098 17.7535ZM48.9453 18.1476L48.8325 18.1432C48.8335 18.0348 48.8496 17.9347 48.8809 17.8429C48.9121 17.7501 48.9561 17.6696 49.0127 17.6012C49.0693 17.5328 49.1367 17.4801 49.2148 17.443C49.2939 17.4049 49.3813 17.3859 49.4771 17.3859C49.5552 17.3859 49.6255 17.3966 49.688 17.4181C49.7505 17.4386 49.8037 17.4718 49.8477 17.5177C49.8926 17.5636 49.9268 17.6232 49.9502 17.6964C49.9736 17.7687 49.9854 17.8571 49.9854 17.9615V19.0001H49.7129V17.9586C49.7129 17.8756 49.7007 17.8092 49.6763 17.7594C49.6519 17.7086 49.6162 17.672 49.5693 17.6495C49.5225 17.6261 49.4648 17.6144 49.3965 17.6144C49.3291 17.6144 49.2676 17.6285 49.2119 17.6569C49.1572 17.6852 49.1099 17.7242 49.0698 17.774C49.0308 17.8239 49 17.881 48.9775 17.9454C48.9561 18.0089 48.9453 18.0763 48.9453 18.1476Z" fill="#858585"/>
<defs>
<filter id="filter0_d_53_2583" x="0" y="0.00012207" width="76" height="38" filterUnits="userSpaceOnUse" color-interpolation-filters="sRGB">
<feFlood flood-opacity="0" result="BackgroundImageFix"/>
<feColorMatrix in="SourceAlpha" type="matrix" values="0 0 0 0 0 0 0 0 0 0 0 0 0 0 0 0 0 0 127 0" result="hardAlpha"/>
<feOffset dy="4"/>
<feGaussianBlur stdDeviation="5"/>
<feComposite in2="hardAlpha" operator="out"/>
<feColorMatrix type="matrix" values="0 0 0 0 0.270588 0 0 0 0 0.164706 0 0 0 0 0.486275 0 0 0 0.1 0"/>
<feBlend mode="normal" in2="BackgroundImageFix" result="effect1_dropShadow_53_2583"/>
<feBlend mode="normal" in="SourceGraphic" in2="effect1_dropShadow_53_2583" result="shape"/>
</filter>
<filter id="filter1_d_53_2583" x="13" y="9" width="21.7783" height="17.6301" filterUnits="userSpaceOnUse" color-interpolation-filters="sRGB">
<feFlood flood-opacity="0" result="BackgroundImageFix"/>
<feColorMatrix in="SourceAlpha" type="matrix" values="0 0 0 0 0 0 0 0 0 0 0 0 0 0 0 0 0 0 127 0" result="hardAlpha"/>
<feOffset dy="4"/>
<feGaussianBlur stdDeviation="2"/>
<feComposite in2="hardAlpha" operator="out"/>
<feColorMatrix type="matrix" values="0 0 0 0 0 0 0 0 0 0 0 0 0 0 0 0 0 0 0.4 0"/>
<feBlend mode="normal" in2="BackgroundImageFix" result="effect1_dropShadow_53_2583"/>
<feBlend mode="normal" in="SourceGraphic" in2="effect1_dropShadow_53_2583" result="shape"/>
</filter>
</defs>
</svg>
