<svg width="18" height="20" viewBox="0 0 18 20" fill="none" xmlns="http://www.w3.org/2000/svg">
<path fill-rule="evenodd" clip-rule="evenodd" d="M0.333008 2C0.333008 1.46957 0.543722 0.960859 0.918794 0.585786C1.29387 0.210714 1.80257 0 2.33301 0L13.2757 0L17.6663 4.39067V18C17.6663 18.5304 17.4556 19.0391 17.0806 19.4142C16.7055 19.7893 16.1968 20 15.6663 20H2.33301C1.80257 20 1.29387 19.7893 0.918794 19.4142C0.543722 19.0391 0.333008 18.5304 0.333008 18V2ZM6.99967 8H8.99967C9.53011 8 10.0388 8.21071 10.4139 8.58579C10.789 8.96086 10.9997 9.46957 10.9997 10C10.9997 10.5304 10.789 11.0391 10.4139 11.4142C10.0388 11.7893 9.53011 12 8.99967 12H8.33301V14.6667H6.99967V8ZM2.07834 8.05067C2.20013 8.00011 2.33417 7.98681 2.46352 8.01244C2.59286 8.03808 2.7117 8.10149 2.80501 8.19467L3.66634 9.05733L4.52767 8.19467C4.62091 8.10119 4.73981 8.03751 4.86929 8.01168C4.99876 7.98586 5.13299 7.99906 5.25496 8.04962C5.37692 8.10018 5.48113 8.18581 5.55437 8.29566C5.62761 8.40551 5.66658 8.53464 5.66634 8.66667V14.6667H4.33301V10.276L3.66634 10.9427L2.99967 10.276V14.6667H1.66634V8.66667C1.66636 8.53475 1.70552 8.4058 1.77886 8.29614C1.8522 8.18649 1.95643 8.10106 2.07834 8.05067ZM13.6663 8H12.333V12H14.9997V14.6667H16.333V8H14.9997V10.6667H13.6663V8Z" fill="#D44D77"/>
</svg>
