<svg width="22" height="22" viewBox="0 0 22 22" fill="none" xmlns="http://www.w3.org/2000/svg">
<path d="M13.625 6.33333H13.6354M11.0208 19.875H4.25C3.4212 19.875 2.62634 19.5458 2.04029 18.9597C1.45424 18.3737 1.125 17.5788 1.125 16.75V4.25C1.125 3.4212 1.45424 2.62634 2.04029 2.04029C2.62634 1.45424 3.4212 1.125 4.25 1.125H16.75C17.5788 1.125 18.3737 1.45424 18.9597 2.04029C19.5458 2.62634 19.875 3.4212 19.875 4.25V11.0208" stroke="#0EA2F3" stroke-width="2" stroke-linecap="round" stroke-linejoin="round"/>
<path d="M1.125 14.6667L6.33333 9.4584C7.3 8.52819 8.49167 8.52819 9.45833 9.4584L13.1042 13.1042" stroke="#0EA2F3" stroke-width="2" stroke-linecap="round" stroke-linejoin="round"/>
<path d="M12.583 12.5831L13.6247 11.5415C14.332 10.8613 15.1591 10.6779 15.9309 10.9936M17.7913 20.9165V14.6665M17.7913 14.6665L20.9163 17.7915M17.7913 14.6665L14.6663 17.7915" stroke="#0EA2F3" stroke-width="2" stroke-linecap="round" stroke-linejoin="round"/>
</svg>
