<svg width="69" height="69" viewBox="0 0 69 69" fill="none" xmlns="http://www.w3.org/2000/svg">
<g clip-path="url(#clip0_1329_10945)">
<rect x="0.5" y="0.5" width="68" height="68" stroke="#E0E0E0"/>
<path d="M42.4134 47.8C40.78 49.3833 38.9967 49.1333 37.28 48.3833C35.4634 47.6167 33.7967 47.5833 31.88 48.3833C29.48 49.4167 28.2134 49.1167 26.78 47.8C18.6467 39.4167 19.8467 26.65 29.08 26.1833C31.33 26.3 32.8967 27.4167 34.2134 27.5167C36.18 27.1167 38.0634 25.9667 40.1634 26.1167C42.68 26.3167 44.58 27.3167 45.83 29.1167C40.63 32.2333 41.8634 39.0833 46.63 41C45.68 43.5 44.4467 45.9833 42.3967 47.8167L42.4134 47.8ZM34.0467 26.0833C33.7967 22.3667 36.8134 19.3 40.28 19C40.7634 23.3 36.38 26.5 34.0467 26.0833Z" fill="black"/>
</g>
<defs>
<clipPath id="clip0_1329_10945">
<rect width="69" height="69" fill="white"/>
</clipPath>
</defs>
</svg>
