<svg width="69" height="69" viewBox="0 0 69 69" fill="none" xmlns="http://www.w3.org/2000/svg">
<rect x="0.5" y="0.5" width="68" height="68" stroke="#E0E0E0"/>
<g clip-path="url(#clip0_1329_10937)">
<path d="M27.9344 15.3156C23.9378 16.702 20.4911 19.3336 18.1006 22.8237C15.7102 26.3138 14.5019 30.4785 14.6533 34.7061C14.8047 38.9336 16.3078 43.0012 18.9418 46.3114C21.5759 49.6216 25.202 51.9998 29.2875 53.0968C32.5998 53.9515 36.0701 53.989 39.4 53.2062C42.4167 52.5286 45.2056 51.0792 47.4938 48.9999C49.8753 46.7698 51.6039 43.9327 52.4938 40.7937C53.4607 37.3801 53.6328 33.7904 52.9969 30.2999H34.3969V38.0156H45.1688C44.9535 39.2461 44.4922 40.4207 43.8124 41.4688C43.1326 42.5169 42.2484 43.4171 41.2125 44.1156C39.8973 44.986 38.4145 45.5715 36.8594 45.8343C35.2999 46.1244 33.7002 46.1244 32.1407 45.8343C30.5599 45.5079 29.0645 44.8554 27.75 43.9187C25.638 42.4236 24.0522 40.2997 23.2188 37.8499C22.3716 35.3543 22.3716 32.6487 23.2188 30.1531C23.812 28.4037 24.7926 26.811 26.0875 25.4937C27.5694 23.9585 29.4455 22.8612 31.5099 22.322C33.5744 21.7829 35.7474 21.8228 37.7907 22.4374C39.3869 22.9272 40.8466 23.7833 42.0532 24.9374C43.2678 23.7291 44.4803 22.5176 45.6907 21.3031C46.3157 20.6499 46.9969 20.0281 47.6125 19.3593C45.7705 17.6453 43.6084 16.3115 41.25 15.4343C36.9554 13.8749 32.2562 13.833 27.9344 15.3156Z" fill="white"/>
<path d="M27.9313 15.3156C32.2527 13.832 36.9518 13.8728 41.2469 15.4312C43.6056 16.3144 45.7667 17.6546 47.6063 19.375C46.9813 20.0437 46.3219 20.6687 45.6844 21.3187C44.4719 22.5292 43.2604 23.7354 42.05 24.9375C40.8434 23.7834 39.3837 22.9272 37.7875 22.4375C35.7449 21.8207 33.5719 21.7785 31.5069 22.3154C29.4419 22.8524 27.5647 23.9477 26.0812 25.4812C24.7864 26.7985 23.8057 28.3913 23.2125 30.1406L16.7344 25.125C19.0532 20.5267 23.068 17.0094 27.9313 15.3156Z" fill="#E33629"/>
<path d="M15.0203 30.0938C15.3682 28.368 15.9463 26.6969 16.7391 25.125L23.2172 30.1531C22.37 32.6488 22.37 35.3543 23.2172 37.85C21.0588 39.5167 18.8995 41.1917 16.7391 42.875C14.7551 38.926 14.1501 34.4266 15.0203 30.0938Z" fill="#F8BD00"/>
<path d="M34.3998 30.2969H52.9998C53.6357 33.7873 53.4636 37.377 52.4967 40.7906C51.6068 43.9296 49.8782 46.7667 47.4967 48.9969C45.4061 47.3656 43.3061 45.7469 41.2155 44.1156C42.2519 43.4165 43.1366 42.5153 43.8164 41.466C44.4962 40.4168 44.9572 39.2411 45.1717 38.0094H34.3998C34.3967 35.4406 34.3998 32.8687 34.3998 30.2969Z" fill="#587DBD"/>
<path d="M16.7344 42.8751C18.8948 41.2084 21.0542 39.5334 23.2125 37.8501C24.0475 40.3007 25.6356 42.4248 27.75 43.9188C29.0686 44.8512 30.5672 45.4984 32.15 45.8188C33.7095 46.1089 35.3092 46.1089 36.8687 45.8188C38.4238 45.556 39.9067 44.9705 41.2219 44.1001C43.3125 45.7313 45.4125 47.3501 47.5031 48.9813C45.2153 51.0617 42.4263 52.5122 39.4094 53.1907C36.0794 53.9736 32.6091 53.936 29.2969 53.0813C26.6772 52.3819 24.2302 51.1488 22.1094 49.4595C19.8648 47.677 18.0314 45.4311 16.7344 42.8751Z" fill="#319F43"/>
</g>
<defs>
<clipPath id="clip0_1329_10937">
<rect width="40" height="40" fill="white" transform="translate(14 14)"/>
</clipPath>
</defs>
</svg>
