<svg width="30" height="30" viewBox="0 0 30 30" fill="none" xmlns="http://www.w3.org/2000/svg">
<rect width="30" height="30" rx="5" fill="#42D755"/>
<path fill-rule="evenodd" clip-rule="evenodd" d="M11.1444 8.66542C10.8486 8.00708 10.5369 7.99375 10.2544 7.98208C10.0236 7.97208 9.76026 7.97292 9.49693 7.97292C9.23359 7.97292 8.80526 8.07208 8.44276 8.46792C8.08026 8.86375 7.05859 9.81958 7.05859 11.7646C7.05859 13.7096 8.47526 15.5896 8.67276 15.8529C8.87026 16.1163 11.4078 20.2354 15.4261 21.8204C18.7653 23.1371 19.4453 22.8754 20.1703 22.8096C20.8953 22.7438 22.5094 21.8538 22.8386 20.9304C23.1678 20.0071 23.1678 19.2162 23.0694 19.0512C22.9703 18.8862 22.7069 18.7879 22.3119 18.5896C21.9169 18.3913 19.9728 17.4354 19.6103 17.3038C19.2478 17.1721 18.9844 17.1063 18.7203 17.5021C18.4569 17.8971 17.6994 18.7879 17.4686 19.0512C17.2378 19.3154 17.0069 19.3488 16.6119 19.1504C16.2169 18.9521 14.9436 18.5354 13.4328 17.1888C12.2578 16.1413 11.4644 14.8471 11.2336 14.4513C11.0028 14.0563 11.2086 13.8421 11.4069 13.6446C11.5844 13.4671 11.8019 13.1829 12.0003 12.9521C12.1978 12.7213 12.2636 12.5563 12.3953 12.2929C12.5269 12.0288 12.4611 11.7979 12.3619 11.6004C12.2644 11.4021 11.4961 9.44708 11.1444 8.66542Z" fill="white"/>
</svg>
