<svg width="30" height="30" viewBox="0 0 30 30" fill="none" xmlns="http://www.w3.org/2000/svg">
<rect width="30" height="30" rx="5" fill="url(#paint0_linear_1_885)"/>
<path d="M23.7618 9.41923C23.6816 9.41234 23.6008 9.41234 23.5206 9.41923H7.05005C6.94448 9.42058 6.83962 9.43377 6.73828 9.45845L15.2383 16.513L23.7618 9.41923Z" fill="white"/>
<path fill-rule="evenodd" clip-rule="evenodd" d="M5.87891 10.5061V20.2178C5.87891 20.4779 6.00286 20.7273 6.22349 20.9111C6.44412 21.095 6.74336 21.1983 7.05538 21.1983H23.526C23.838 21.1983 24.1372 21.095 24.3579 20.9111C24.5785 20.7273 24.7024 20.4779 24.7024 20.2178V10.4131C24.6978 10.3109 24.6739 10.21 24.6318 10.114L16.0671 17.2225C15.8467 17.4051 15.5485 17.5076 15.2377 17.5076C14.9269 17.5076 14.6287 17.4051 14.4083 17.2225L6.09791 10.3157L5.87891 10.5061ZM7.86126 20.2178H7.04361V19.5168L11.3201 15.9822L12.1495 16.6734L7.86126 20.2178ZM23.5142 20.2178H22.6907L18.4024 16.6734L19.2318 15.9822L23.5083 19.5168L23.5142 20.2178Z" fill="white"/>
<defs>
<linearGradient id="paint0_linear_1_885" x1="15" y1="0" x2="15" y2="30" gradientUnits="userSpaceOnUse">
<stop stop-color="#0B6AB1"/>
<stop offset="1" stop-color="#31BBEF"/>
</linearGradient>
</defs>
</svg>
