<svg width="55" height="55" viewBox="0 0 55 55" fill="none" xmlns="http://www.w3.org/2000/svg">
<path d="M42.7964 54.971L12.257 55C5.53833 55.0061 0.0366525 49.5151 0.0290176 42.7964L5.09064e-06 12.257C-0.0061028 5.53833 5.48489 0.0366525 12.2036 0.0290176L42.743 5.09064e-06C49.4617 -0.0061028 54.9633 5.48489 54.971 12.2036L55 42.743C55.0076 49.4632 49.5151 54.9649 42.7964 54.971Z" fill="url(#paint0_radial_221_3915)"/>
<path d="M42.7964 54.971L12.257 55C5.53833 55.0061 0.0366525 49.5151 0.0290176 42.7964L5.09064e-06 12.257C-0.0061028 5.53833 5.48489 0.0366525 12.2036 0.0290176L42.743 5.09064e-06C49.4617 -0.0061028 54.9633 5.48489 54.971 12.2036L55 42.743C55.0076 49.4632 49.5151 54.9649 42.7964 54.971Z" fill="url(#paint1_radial_221_3915)"/>
<path d="M27.5013 38.1901C21.6087 38.1901 16.8125 33.3954 16.8125 27.5013C16.8125 21.6072 21.6087 16.8125 27.5013 16.8125C33.3939 16.8125 38.1901 21.6072 38.1901 27.5013C38.1901 33.3954 33.3939 38.1901 27.5013 38.1901ZM27.5013 19.8664C23.2914 19.8664 19.8664 23.2914 19.8664 27.5013C19.8664 31.7112 23.2914 35.1362 27.5013 35.1362C31.7112 35.1362 35.1362 31.7112 35.1362 27.5013C35.1362 23.2914 31.7112 19.8664 27.5013 19.8664Z" fill="white"/>
<path d="M38.9506 18.3387C40.2156 18.3387 41.2411 17.3133 41.2411 16.0483C41.2411 14.7833 40.2156 13.7578 38.9506 13.7578C37.6856 13.7578 36.6602 14.7833 36.6602 16.0483C36.6602 17.3133 37.6856 18.3387 38.9506 18.3387Z" fill="white"/>
<path d="M36.6609 47.3516H18.3372C12.4447 47.3516 7.64844 42.557 7.64844 36.6628V18.3392C7.64844 12.4451 12.4447 7.65039 18.3372 7.65039H36.6609C42.5535 7.65039 47.3497 12.4451 47.3497 18.3392V36.6628C47.3497 42.557 42.5535 47.3516 36.6609 47.3516ZM18.3372 10.7043C14.1274 10.7043 10.7024 14.1293 10.7024 18.3392V36.6628C10.7024 40.8727 14.1274 44.2977 18.3372 44.2977H36.6609C40.8708 44.2977 44.2957 40.8727 44.2957 36.6628V18.3392C44.2957 14.1293 40.8708 10.7043 36.6609 10.7043H18.3372Z" fill="white"/>
<defs>
<radialGradient id="paint0_radial_221_3915" cx="0" cy="0" r="1" gradientUnits="userSpaceOnUse" gradientTransform="translate(20.4462 55.0397) scale(68.5595 68.5595)">
<stop stop-color="#FFDD55"/>
<stop offset="0.328" stop-color="#FF543F"/>
<stop offset="0.348" stop-color="#FC5245"/>
<stop offset="0.504" stop-color="#E64771"/>
<stop offset="0.643" stop-color="#D53E91"/>
<stop offset="0.761" stop-color="#CC39A4"/>
<stop offset="0.841" stop-color="#C837AB"/>
</radialGradient>
<radialGradient id="paint1_radial_221_3915" cx="0" cy="0" r="1" gradientUnits="userSpaceOnUse" gradientTransform="translate(8.85033 -0.68667) scale(45.5236 30.3324)">
<stop stop-color="#4168C9"/>
<stop offset="0.999" stop-color="#4168C9" stop-opacity="0"/>
</radialGradient>
</defs>
</svg>
