<svg width="55" height="55" viewBox="0 0 55 55" fill="none" xmlns="http://www.w3.org/2000/svg">
<rect width="55" height="55" rx="15" fill="#0288D1"/>
<path d="M9.70703 24.2209C9.70703 22.1115 11.4171 20.4015 13.5265 20.4015C15.6359 20.4015 17.3459 22.1115 17.3459 24.2209V42.5543C17.3459 44.6637 15.6359 46.3737 13.5265 46.3737C11.4171 46.3737 9.70703 44.6637 9.70703 42.5543V24.2209ZM13.5036 17.3459H13.4608C11.1813 17.3459 9.70703 15.647 9.70703 13.5249C9.70703 11.357 11.2272 9.70703 13.5479 9.70703C15.8716 9.70703 17.3031 11.357 17.3459 13.5249C17.3459 15.6455 15.8716 17.3459 13.5036 17.3459ZM46.3733 42.5541C46.3735 44.6635 44.6635 46.3737 42.5541 46.3737C40.4447 46.3737 38.7348 44.6638 38.7348 42.5544V32.4724C38.7348 29.1144 36.8633 26.8227 33.8581 26.8227C31.5649 26.8227 30.3244 28.3688 29.7224 29.863C29.5024 30.3977 29.5681 31.8766 29.5681 32.6237V42.5543C29.5681 44.6637 27.8581 46.3737 25.7487 46.3737C23.6393 46.3737 21.9293 44.6637 21.9293 42.5543V24.2209C21.9293 22.1115 23.6393 20.4015 25.7487 20.4015H28.6579C29.1606 20.4015 29.5681 20.809 29.5681 21.3117C29.5681 22.2192 30.8521 22.6276 31.5561 22.0551C32.7042 21.1218 34.3331 20.4015 36.8068 20.4015C42.2731 20.4015 46.3722 23.839 46.3722 31.5145L46.3733 42.5541Z" fill="white"/>
</svg>
