<svg width="30" height="30" viewBox="0 0 30 30" fill="none" xmlns="http://www.w3.org/2000/svg">
<rect width="30" height="30" rx="5" fill="#FD6578"/>
<path d="M14.8836 20.466C14.0443 19.7702 13.2664 19.0074 12.558 18.1855C11.4949 16.9513 10.2324 15.1131 10.2324 13.3616C10.2315 11.5322 11.3648 9.88256 13.1035 9.18245C14.8423 8.48234 16.8437 8.86975 18.1739 10.1639C19.0486 11.0104 19.5386 12.1618 19.5347 13.3616C19.5347 15.1131 18.2723 16.9513 17.2091 18.1855C16.5007 19.0074 15.7228 19.7702 14.8836 20.466ZM14.8836 11.424C14.1714 11.424 13.5134 11.7933 13.1573 12.3928C12.8012 12.9923 12.8012 13.7309 13.1573 14.3304C13.5134 14.9298 14.1714 15.2991 14.8836 15.2991C15.9845 15.2991 16.8769 14.4317 16.8769 13.3616C16.8769 12.2915 15.9845 11.424 14.8836 11.424Z" fill="white"/>
</svg>
