<svg width="30" height="30" viewBox="0 0 30 30" fill="none" xmlns="http://www.w3.org/2000/svg">
<rect width="30" height="30" rx="5" fill="url(#paint0_linear_1_903)"/>
<path d="M6.4707 8.70189C6.4707 8.11021 6.70311 7.54276 7.11679 7.12438C7.53047 6.70599 8.09155 6.47095 8.67659 6.47095H21.9119C22.4969 6.47095 23.058 6.70599 23.4717 7.12438C23.8854 7.54276 24.1178 8.11021 24.1178 8.70189V17.6257C24.1178 18.2174 23.8854 18.7848 23.4717 19.2032C23.058 19.6216 22.4969 19.8566 21.9119 19.8566H11.3391C11.0466 19.8567 10.7661 19.9743 10.5593 20.1835L7.41261 23.3659C7.33555 23.444 7.2373 23.4973 7.1303 23.5189C7.0233 23.5406 6.91236 23.5296 6.81151 23.4875C6.71067 23.4453 6.62446 23.3738 6.56379 23.2821C6.50312 23.1904 6.47073 23.0825 6.4707 22.9722V8.70189ZM10.331 9.81737C10.1847 9.81737 10.0445 9.87613 9.94105 9.98073C9.83763 10.0853 9.77953 10.2272 9.77953 10.3751C9.77953 10.523 9.83763 10.6649 9.94105 10.7695C10.0445 10.8741 10.1847 10.9328 10.331 10.9328H20.2575C20.4037 10.9328 20.544 10.8741 20.6474 10.7695C20.7508 10.6649 20.8089 10.523 20.8089 10.3751C20.8089 10.2272 20.7508 10.0853 20.6474 9.98073C20.544 9.87613 20.4037 9.81737 20.2575 9.81737H10.331ZM10.331 12.6061C10.1847 12.6061 10.0445 12.6648 9.94105 12.7694C9.83763 12.874 9.77953 13.0159 9.77953 13.1638C9.77953 13.3117 9.83763 13.4536 9.94105 13.5582C10.0445 13.6628 10.1847 13.7215 10.331 13.7215H20.2575C20.4037 13.7215 20.544 13.6628 20.6474 13.5582C20.7508 13.4536 20.8089 13.3117 20.8089 13.1638C20.8089 13.0159 20.7508 12.874 20.6474 12.7694C20.544 12.6648 20.4037 12.6061 20.2575 12.6061H10.331ZM10.331 15.3947C10.1847 15.3947 10.0445 15.4535 9.94105 15.5581C9.83763 15.6627 9.77953 15.8046 9.77953 15.9525C9.77953 16.1004 9.83763 16.2423 9.94105 16.3469C10.0445 16.4515 10.1847 16.5102 10.331 16.5102H15.8457C15.992 16.5102 16.1322 16.4515 16.2357 16.3469C16.3391 16.2423 16.3972 16.1004 16.3972 15.9525C16.3972 15.8046 16.3391 15.6627 16.2357 15.5581C16.1322 15.4535 15.992 15.3947 15.8457 15.3947H10.331Z" fill="white"/>
<defs>
<linearGradient id="paint0_linear_1_903" x1="15" y1="0" x2="15" y2="30" gradientUnits="userSpaceOnUse">
<stop stop-color="#2196F3"/>
<stop offset="1" stop-color="#0C539D"/>
</linearGradient>
</defs>
</svg>
