<svg width="55" height="55" viewBox="0 0 55 55" fill="none" xmlns="http://www.w3.org/2000/svg">
<rect width="55" height="55" rx="15" fill="#FFEE41"/>
<path d="M27.1668 47.7207C23.3775 47.7207 21.9257 46.3835 20.9644 45.4989C19.4026 44.0655 18.1147 43.5327 16.8233 43.7412L13.7926 44.2569C13.6242 44.2889 13.3652 44.2992 13.1234 44.2465C12.9069 44.2179 12.7109 44.1629 12.5265 44.0804C12.4554 44.0529 12.3947 44.0277 12.3328 43.9956C12.0865 43.8512 11.9146 43.7149 11.7645 43.5545C11.7313 43.5235 11.698 43.4891 11.6671 43.4536C11.5811 43.3631 11.5158 43.2703 11.4677 43.1798C11.4322 43.1248 11.4001 43.0675 11.3726 43.009C11.3176 42.8876 11.2557 42.7489 11.2099 42.5793C11.1629 42.4533 11.1377 42.3192 11.1366 42.1863C11.1171 41.9159 11.1389 41.6741 11.2007 41.4473C11.203 41.437 11.2065 41.4255 11.2088 41.4163C7.87781 40.8194 6.14302 39.1109 6.06052 39.0296C5.44521 38.4131 5.23323 37.5125 5.51052 36.6795C5.81302 35.8235 6.5624 35.2242 7.42865 35.1337C7.42406 35.1337 7.51802 35.1246 7.6624 35.1211C9.88875 35.057 13.7605 34.2973 14.6726 29.9225C14.7379 29.6108 14.6692 29.2579 14.4916 29.0024C14.3758 28.8351 14.236 28.7388 14.0745 28.7136C12.2228 28.4249 10.7882 27.4108 10.1385 25.9315C9.67792 24.8831 9.69052 23.7407 10.1706 23.0211C11.0311 21.7332 12.1816 21.3241 14.0057 21.6713C14.0814 21.6851 14.1558 21.7068 14.2269 21.7366L14.6016 21.889L14.4515 20.1222C14.1627 16.6136 15.3635 13.1223 17.7457 10.5361C20.1256 7.95341 23.5058 6.4707 27.0178 6.4707H27.3157C30.8277 6.4707 34.2091 7.95341 36.589 10.5373C38.97 13.1234 40.1708 16.6171 39.8821 20.1199L39.7308 21.8913L40.1055 21.7378C40.1777 21.7091 40.251 21.6862 40.3267 21.6725C42.1554 21.3276 43.3013 21.7321 44.1618 23.0223C44.6453 23.7476 44.6568 24.8991 44.1893 25.9556C43.5442 27.42 42.1348 28.418 40.3255 28.6941C40.1021 28.7285 39.9497 28.8878 39.8626 29.0138C39.6758 29.2865 39.6025 29.6589 39.6735 29.9844C40.6074 34.3076 44.4585 35.0592 46.6689 35.1223C46.8144 35.1257 46.9095 35.1349 46.9473 35.1406C47.77 35.2254 48.5205 35.8258 48.815 36.6611C48.8173 36.6668 48.8196 36.6737 48.8207 36.6795C49.0992 37.5136 48.8883 38.4154 48.2696 39.033C48.1928 39.1109 46.466 40.8194 43.1317 41.4163C43.142 41.4564 43.1523 41.5046 43.1592 41.5584C43.2004 41.7521 43.213 41.9595 43.197 42.1863C43.1958 42.3227 43.1706 42.4579 43.1225 42.5851C43.0767 42.7524 43.0171 42.8841 42.9758 42.977C42.9506 43.0331 42.9163 43.095 42.8796 43.1534L42.828 43.2428L42.8269 43.2416C42.7833 43.315 42.7329 43.3837 42.6768 43.4445C42.6424 43.4846 42.6057 43.5224 42.5691 43.5579C42.4384 43.7011 42.2643 43.8432 42.0672 43.9624C42.0099 43.9956 41.8781 44.0563 41.8162 44.0804C41.6203 44.1675 41.4267 44.2202 41.2067 44.2488C40.9626 44.305 40.7208 44.2947 40.5134 44.2534L37.5056 43.7435C36.2303 43.527 34.9321 44.0655 33.4448 45.429C32.4078 46.3835 30.9572 47.7207 27.1668 47.7207ZM17.3756 41.4037C19.068 41.4037 20.7306 42.1737 22.4368 43.7389C23.3397 44.5708 24.2724 45.429 27.1668 45.429C30.0611 45.429 30.9939 44.5697 31.8166 43.8123C33.9157 41.8873 35.8717 41.1448 37.8849 41.4805L40.8503 41.9835C40.8664 41.9812 40.8812 41.9789 40.8961 41.9766C40.8927 41.9572 40.8904 41.9388 40.8881 41.9193L40.8835 41.9205C40.8595 41.8724 40.6475 41.3682 40.5134 40.6578C40.4516 40.3358 40.5329 40.0035 40.7323 39.7434C40.9317 39.4833 41.2342 39.3229 41.5619 39.3C44.855 39.0777 46.5875 37.4689 46.6494 37.4105C46.6471 37.4082 46.6459 37.4071 46.6459 37.4071C41.7005 37.273 38.3581 34.7419 37.4334 30.4679C37.2306 29.5317 37.4334 28.5005 37.9754 27.7145C38.4624 27.0075 39.1751 26.5503 39.9818 26.4288C41.1517 26.2501 41.7108 25.6943 41.9744 25.2589C42.2677 24.7754 42.2608 24.3411 42.2253 24.238C42.0214 23.9412 41.877 23.7224 40.8606 23.9046L38.8646 24.7181C38.4945 24.8682 38.0751 24.8155 37.752 24.5806C37.4311 24.3446 37.2547 23.9573 37.2902 23.5597L37.5996 19.9274C37.8391 17.0204 36.8811 14.2349 34.9034 12.0876C32.9257 9.94372 30.2319 8.76237 27.3157 8.76237H27.0178C24.1017 8.76237 21.4078 9.94372 19.4313 12.0887C17.4535 14.236 16.4956 17.0227 16.7351 19.932L17.0445 23.5608C17.0777 23.9584 16.9024 24.3457 16.5816 24.5817C16.2584 24.8166 15.8379 24.8694 15.4701 24.7192L13.4729 23.9057C12.4531 23.7258 12.3099 23.9447 12.0784 24.2941C12.0739 24.34 12.0693 24.7662 12.3569 25.2429C12.6273 25.6886 13.2048 26.2604 14.4263 26.4506C15.21 26.5709 15.9021 27.0155 16.3765 27.6996C16.907 28.4661 17.1086 29.4722 16.9161 30.3923C16.0144 34.7132 12.6663 37.273 7.72771 37.4139C7.69792 37.4265 9.43386 39.0765 12.7717 39.3023C13.0994 39.3252 13.4007 39.4856 13.6013 39.7457C13.8018 40.0047 13.882 40.3381 13.8201 40.6589C13.686 41.3705 13.4718 41.877 13.4477 41.932C13.4443 41.9423 13.4385 41.9572 13.4317 41.9755C13.4454 41.987 13.4592 41.9801 13.4729 41.9824L16.4441 41.4805C16.7569 41.4301 17.0674 41.4037 17.3756 41.4037ZM41.1391 42.4659L41.4049 43.0079L41.1391 42.4659ZM40.7254 42.4522C40.7163 42.5095 40.7105 42.5702 40.7105 42.6332C40.7105 42.5736 40.7151 42.5117 40.7254 42.4522ZM41.6226 41.7509H41.6386L41.987 41.6088L41.5905 41.7211L41.6226 41.7509Z" fill="url(#paint0_linear_221_3924)"/>
<path d="M47.6639 36.9738C47.515 36.5499 47.1483 36.252 46.7129 36.2061C46.4195 36.1637 39.8402 36.4376 38.4824 30.1584C38.2314 28.9965 38.9075 27.6731 40.0831 27.4932C43.1379 27.028 43.665 24.3811 43.1379 23.5905C42.6108 22.7999 41.992 22.4447 40.4681 22.7311L38.3598 23.5905L38.6691 19.9582C39.2191 13.278 33.9483 7.54883 27.2452 7.54883H27.0962H26.9473C20.2441 7.54883 14.9733 13.278 15.5233 19.9582L15.8327 23.5905L13.7243 22.7311C12.2004 22.4447 11.5816 22.7999 11.0545 23.5905C10.5275 24.3811 11.0545 27.028 14.1792 27.5138C15.3148 27.6903 15.9587 28.9645 15.7238 30.0897C14.3992 36.4387 7.77288 36.1637 7.47955 36.2061C7.04413 36.252 6.67746 36.5499 6.52851 36.9738C6.39101 37.3863 6.49413 37.8447 6.80351 38.154C6.91809 38.2686 8.88892 40.1249 12.6243 40.377C12.5098 40.9842 12.3264 41.4082 12.3264 41.4082C12.292 41.477 12.2806 41.5342 12.2577 41.603C12.2462 41.6271 12.2348 41.6488 12.2348 41.6832C12.2004 41.8092 12.2004 41.9467 12.2118 42.0728C12.2233 42.0842 12.2118 42.0957 12.2118 42.1072C12.2233 42.1301 12.2348 42.153 12.2348 42.1645C12.2577 42.279 12.3035 42.3707 12.3493 42.4738C12.3723 42.4967 12.3837 42.5311 12.4066 42.5655C12.4066 42.577 12.4181 42.5884 12.4295 42.5999C12.441 42.6342 12.4754 42.6457 12.4983 42.6686C12.5785 42.7603 12.6702 42.8405 12.7848 42.9092C12.8306 42.9322 12.8764 42.9436 12.9223 42.9665C13.0254 43.0124 13.1285 43.0353 13.2431 43.0467C13.2775 43.0467 13.3118 43.0697 13.3462 43.0697C13.4035 43.0697 13.4723 43.0697 13.5295 43.0582L16.566 42.5426C18.4876 42.2263 20.1628 43.2049 21.5928 44.5168C22.5129 45.3613 23.6587 46.5072 27.0962 46.5072C30.5337 46.5072 31.6795 45.3613 32.5996 44.5168C34.0296 43.2049 35.7049 42.2263 37.6264 42.5426L40.6629 43.0582C40.7202 43.0697 40.7889 43.0697 40.8462 43.0697C40.8806 43.0697 40.915 43.0467 40.9493 43.0467C41.0639 43.0353 41.167 43.0124 41.2702 42.9665C41.316 42.9436 41.3618 42.9322 41.4077 42.9092C41.5223 42.8405 41.6139 42.7603 41.6941 42.6686C41.717 42.6457 41.7514 42.6342 41.7629 42.5999C41.7743 42.5884 41.7858 42.577 41.7858 42.5655C41.8087 42.5311 41.8202 42.4967 41.8431 42.4738C41.8889 42.3707 41.9348 42.279 41.9577 42.1645C41.9577 42.153 41.9691 42.1301 41.9806 42.1072C41.9806 42.0957 41.9691 42.0842 41.9806 42.0728C41.992 41.9467 41.992 41.8092 41.9577 41.6832C41.9577 41.6488 41.9462 41.6259 41.9348 41.603C41.9118 41.5342 41.9004 41.477 41.866 41.4082C41.866 41.4082 41.6827 40.9842 41.5681 40.377C45.3035 40.1249 47.2743 38.2686 47.3889 38.154C47.6983 37.8447 47.8014 37.3863 47.6639 36.9738Z" fill="white"/>
<defs>
<linearGradient id="paint0_linear_221_3924" x1="27.1656" y1="1.0956" x2="27.1656" y2="48.045" gradientUnits="userSpaceOnUse">
<stop stop-color="#A4A4A4"/>
<stop offset="0.63" stop-color="#7F7F7F"/>
<stop offset="1" stop-color="#6F6F6F"/>
</linearGradient>
</defs>
</svg>
