<svg width="30" height="30" viewBox="0 0 30 30" fill="none" xmlns="http://www.w3.org/2000/svg">
<rect width="30" height="30" rx="5" fill="black"/>
<g clip-path="url(#clip0_1_944)">
<path d="M18.5475 12.6338C19.622 13.4119 20.9383 13.8697 22.36 13.8697V11.0984C22.091 11.0984 21.8226 11.07 21.5594 11.0135V13.1949C20.1378 13.1949 18.8216 12.7372 17.7468 11.9591V17.6147C17.7468 20.4439 15.4828 22.7373 12.6901 22.7373C11.6481 22.7373 10.6795 22.4182 9.875 21.8708C10.7933 22.822 12.0739 23.412 13.4905 23.412C16.2834 23.412 18.5476 21.1187 18.5476 18.2893V12.6338H18.5475ZM19.5352 9.83785C18.9861 9.23011 18.6255 8.44471 18.5475 7.5764V7.21997H17.7887C17.9797 8.32355 18.6312 9.26638 19.5352 9.83785ZM11.6414 19.6998C11.3345 19.2923 11.1687 18.7938 11.1694 18.2812C11.1694 16.9872 12.205 15.9381 13.4827 15.9381C13.7207 15.9379 13.9574 15.975 14.1843 16.0479V13.2145C13.9191 13.1777 13.6515 13.1621 13.384 13.1678V15.3731C13.157 15.3002 12.9202 15.2632 12.682 15.2634C11.4044 15.2634 10.3689 16.3125 10.3689 17.6066C10.3689 18.5217 10.8865 19.3139 11.6414 19.6998Z" fill="#FF004F"/>
<path d="M17.7466 11.9591C18.8214 12.7371 20.1375 13.1949 21.5592 13.1949V11.0134C20.7656 10.8422 20.0631 10.4221 19.535 9.83785C18.6309 9.26632 17.9795 8.32349 17.7885 7.21997H15.7956V18.2892C15.791 19.5796 14.7572 20.6245 13.4823 20.6245C12.7311 20.6245 12.0637 20.2618 11.641 19.6998C10.8863 19.3139 10.3686 18.5216 10.3686 17.6066C10.3686 16.3126 11.4041 15.2634 12.6817 15.2634C12.9265 15.2634 13.1624 15.302 13.3837 15.3732V13.1679C10.6401 13.2253 8.43359 15.4963 8.43359 18.2892C8.43359 19.6835 8.98305 20.9474 9.87485 21.8709C10.6794 22.4182 11.6479 22.7374 12.6899 22.7374C15.4827 22.7374 17.7467 20.4439 17.7467 17.6147V11.9591L17.7466 11.9591Z" fill="black"/>
<path d="M21.559 11.0135V10.4238C20.8434 10.4249 20.1419 10.2219 19.5348 9.83796C20.0722 10.434 20.7799 10.845 21.559 11.0136V11.0135ZM17.7883 7.22002C17.7701 7.11458 17.7561 7.00843 17.7464 6.90184V6.54541H14.9946V17.6147C14.9902 18.9051 13.9565 19.9499 12.6815 19.9499C12.3201 19.9505 11.9636 19.8649 11.6408 19.7C12.0635 20.2619 12.7309 20.6246 13.4821 20.6246C14.757 20.6246 15.7909 19.5798 15.7953 18.2894V7.22008H17.7883V7.22002ZM13.3837 13.1679V12.54C13.1538 12.5082 12.9219 12.4922 12.6898 12.4923C9.89684 12.4923 7.63281 14.7858 7.63281 17.6147C7.63281 19.3884 8.5226 20.9515 9.87475 21.8709C8.98295 20.9475 8.43349 19.6835 8.43349 18.2893C8.43349 15.4964 10.6399 13.2254 13.3837 13.1679Z" fill="#00F2EA"/>
</g>
<defs>
<clipPath id="clip0_1_944">
<rect width="14.7273" height="16.9091" fill="white" transform="translate(7.63281 6.54541)"/>
</clipPath>
</defs>
</svg>
