<svg width="30" height="30" viewBox="0 0 30 30" fill="none" xmlns="http://www.w3.org/2000/svg">
<rect width="30" height="30" rx="5" fill="#0EA2F3"/>
<path d="M25.8825 9.45821C25.1692 9.76724 24.4022 9.97326 23.5928 10.0709C24.4155 9.59315 25.0487 8.83115 25.3458 7.93059C24.576 8.37187 23.7229 8.6962 22.8156 8.86713C22.0909 8.11592 21.0571 7.6499 19.9121 7.6499C17.7125 7.6499 15.9292 9.37859 15.9292 11.5103C15.9292 11.8122 15.9655 12.1059 16.0331 12.3911C12.7239 12.2287 9.78862 10.6898 7.825 8.35433C7.4801 8.92516 7.28604 9.59315 7.28604 10.2985C7.28604 11.6385 7.98733 12.8184 9.05698 13.5134C8.40397 13.4941 7.78959 13.3164 7.25155 13.0312C7.25155 13.0429 7.25155 13.06 7.25155 13.0766C7.25155 14.9492 8.6247 16.5088 10.4448 16.8637C10.1124 16.9528 9.76057 17.0023 9.3982 17.0023C9.14113 17.0023 8.89051 16.9739 8.6477 16.9312C9.15447 18.4615 10.6247 19.5802 12.3666 19.6135C11.0036 20.6472 9.28691 21.2662 7.42032 21.2662C7.09796 21.2662 6.78249 21.2482 6.4707 21.2113C8.2352 22.3039 10.329 22.944 12.5768 22.944C19.901 22.944 23.9083 17.0607 23.9083 11.9565C23.9083 11.7892 23.9028 11.6228 23.8949 11.4581C24.6767 10.9179 25.3504 10.2369 25.8825 9.45821Z" fill="white"/>
</svg>
