<svg width="30" height="30" viewBox="0 0 30 30" fill="none" xmlns="http://www.w3.org/2000/svg">
<rect width="30" height="30" rx="5" fill="#42D755"/>
<path d="M16.4667 8.81421H8.88212C7.57443 8.81421 6.46289 9.92575 6.46289 11.2334V17.445C6.46289 18.7527 7.57443 19.8642 8.88212 19.8642H16.4667C17.7744 19.8642 18.886 18.7527 18.886 17.445V11.2334C18.886 9.86036 17.7744 8.81421 16.4667 8.81421Z" fill="white"/>
<path d="M22.417 9.33717L19.867 11.5602C19.7362 11.691 19.6055 11.8872 19.6055 12.0833V16.4641C19.6055 16.5482 19.6175 16.6323 19.6467 16.7113C19.7297 16.9356 19.9563 17.0673 20.1343 17.227L22.417 19.2756C23.0055 19.7987 23.9862 19.4064 23.9862 18.5564V10.0564C23.9862 9.2064 23.0709 8.74871 22.417 9.33717Z" fill="white"/>
</svg>
