<svg width="30" height="30" viewBox="0 0 30 30" fill="none" xmlns="http://www.w3.org/2000/svg">
<rect width="30" height="30" rx="5" fill="#3599F9"/>
<path d="M19.4001 16.2941C19.4754 15.6729 19.5318 15.0518 19.5318 14.4118C19.5318 13.7718 19.4754 13.1506 19.4001 12.5294H22.5812C22.7318 13.1318 22.8259 13.7624 22.8259 14.4118C22.8259 15.0612 22.7318 15.6918 22.5812 16.2941H19.4001ZM17.7342 21.5271C18.2989 20.4824 18.7318 19.3529 19.033 18.1765H21.8095C20.8976 19.7466 19.451 20.936 17.7342 21.5271ZM17.4989 16.2941H13.0942C13.0001 15.6729 12.9436 15.0518 12.9436 14.4118C12.9436 13.7718 13.0001 13.1412 13.0942 12.5294H17.4989C17.5836 13.1412 17.6495 13.7718 17.6495 14.4118C17.6495 15.0518 17.5836 15.6729 17.4989 16.2941ZM15.2965 21.9035C14.5154 20.7741 13.8848 19.5224 13.4989 18.1765H17.0942C16.7083 19.5224 16.0777 20.7741 15.2965 21.9035ZM11.5318 10.6471H8.78359C9.68604 9.07267 11.1316 7.8814 12.8495 7.29647C12.2848 8.34118 11.8612 9.47059 11.5318 10.6471ZM8.78359 18.1765H11.5318C11.8612 19.3529 12.2848 20.4824 12.8495 21.5271C11.1352 20.9357 9.69168 19.7461 8.78359 18.1765ZM8.01182 16.2941C7.86124 15.6918 7.76712 15.0612 7.76712 14.4118C7.76712 13.7624 7.86124 13.1318 8.01182 12.5294H11.193C11.1177 13.1506 11.0612 13.7718 11.0612 14.4118C11.0612 15.0518 11.1177 15.6729 11.193 16.2941H8.01182ZM15.2965 6.91059C16.0777 8.04 16.7083 9.30118 17.0942 10.6471H13.4989C13.8848 9.30118 14.5154 8.04 15.2965 6.91059ZM21.8095 10.6471H19.033C18.7384 9.48137 18.3022 8.35614 17.7342 7.29647C19.4659 7.88941 20.9059 9.08471 21.8095 10.6471ZM15.2965 5C10.0918 5 5.88477 9.23529 5.88477 14.4118C5.88477 16.9079 6.87636 19.3018 8.64141 21.0669C9.51537 21.9409 10.5529 22.6341 11.6948 23.1071C12.8367 23.5801 14.0606 23.8235 15.2965 23.8235C17.7927 23.8235 20.1866 22.8319 21.9517 21.0669C23.7167 19.3018 24.7083 16.9079 24.7083 14.4118C24.7083 13.1758 24.4649 11.9519 23.9919 10.81C23.5189 9.66815 22.8256 8.63061 21.9517 7.75664C21.0777 6.88268 20.0401 6.18941 18.8983 5.71643C17.7564 5.24344 16.5325 5 15.2965 5Z" fill="white"/>
</svg>
