<svg width="30" height="30" viewBox="0 0 30 30" fill="none" xmlns="http://www.w3.org/2000/svg">
<rect width="30" height="30" rx="5" fill="url(#paint0_linear_1_897)"/>
<path d="M4.98161 26.309C4.90906 26.309 4.8387 26.2804 4.78649 26.2277C4.71778 26.1579 4.69085 26.0562 4.71668 25.9622L5.62423 22.6484C5.97207 21.3783 5.7516 20.0388 5.33781 18.7887C4.97919 17.7052 4.79404 16.5648 4.79473 15.4136C4.79693 9.50948 9.60128 4.70679 15.5049 4.70679C18.3685 4.70789 21.0589 5.82309 23.081 7.84684C25.1031 9.87114 26.2161 12.561 26.215 15.4213C26.2128 21.3249 21.4079 26.1282 15.5049 26.1282C14.4078 26.1278 13.3181 25.9583 12.2789 25.6308C11.0805 25.2531 9.80418 25.0536 8.58876 25.3723L5.05141 26.2997C5.02833 26.3063 5.00524 26.309 4.98161 26.309Z" fill="white"/>
<path d="M21.6394 9.28601C20.0015 7.64701 17.8244 6.74396 15.5071 6.74341C10.7231 6.74341 6.83228 10.6326 6.83008 15.4133C6.82953 17.0518 7.28792 18.6468 8.15634 20.028C8.28802 20.2371 8.32582 20.4919 8.26053 20.7302L8.18537 21.0045C7.87473 22.1381 8.90799 23.1829 10.045 22.8848L10.4127 22.7884C10.6409 22.7285 10.8835 22.7626 11.0864 22.8828C12.4177 23.6732 13.9445 24.0909 15.5011 24.0915H15.5044C20.2851 24.0915 24.176 20.2017 24.1776 15.4205C24.1782 13.1038 23.2773 10.925 21.6394 9.28601Z" fill="#40C351"/>
<path fill-rule="evenodd" clip-rule="evenodd" d="M12.896 11.0525C12.7009 10.6182 12.4953 10.6095 12.309 10.6018C12.1568 10.5952 11.9831 10.5957 11.8094 10.5957C11.6357 10.5957 11.3532 10.6611 11.1141 10.9222C10.875 11.1833 10.2012 11.8137 10.2012 13.0965C10.2012 14.3794 11.1355 15.6194 11.2658 15.793C11.3961 15.9667 13.0697 18.6836 15.72 19.729C17.9224 20.5974 18.3709 20.4248 18.8491 20.3814C19.3273 20.338 20.3919 19.751 20.609 19.142C20.8261 18.533 20.8261 18.0114 20.7613 17.9025C20.6959 17.7937 20.5222 17.7289 20.2617 17.598C20.0011 17.4672 18.7188 16.8368 18.4797 16.75C18.2407 16.6631 18.067 16.6197 17.8927 16.8808C17.7191 17.1413 17.2194 17.7289 17.0672 17.9025C16.9149 18.0768 16.7627 18.0988 16.5022 17.9679C16.2416 17.8371 15.4018 17.5623 14.4053 16.6741C13.6303 15.9832 13.1071 15.1296 12.9548 14.8686C12.8026 14.608 12.9383 14.4668 13.0692 14.3365C13.1862 14.2194 13.3297 14.032 13.4605 13.8798C13.5908 13.7275 13.6342 13.6187 13.721 13.445C13.8079 13.2708 13.7644 13.1185 13.699 12.9883C13.6347 12.8575 13.128 11.568 12.896 11.0525Z" fill="white"/>
<defs>
<linearGradient id="paint0_linear_1_897" x1="15" y1="0" x2="15" y2="30" gradientUnits="userSpaceOnUse">
<stop stop-color="#80D88C"/>
<stop offset="1" stop-color="#40C351"/>
</linearGradient>
</defs>
</svg>
