<svg width="55" height="55" viewBox="0 0 55 55" fill="none" xmlns="http://www.w3.org/2000/svg">
<rect width="55" height="55" rx="15" fill="#FF3D00"/>
<path d="M43.4662 35.8568C43.1327 37.6076 41.7154 38.9415 39.9647 39.1916C37.2134 39.6084 32.6281 40.1087 27.4592 40.1087C22.3736 40.1087 17.7882 39.6084 14.9537 39.1916C13.2029 38.9415 11.7856 37.6076 11.4521 35.8568C11.1186 33.9393 10.7852 31.1047 10.7852 27.6032C10.7852 24.1016 11.1186 21.267 11.4521 19.3495C11.7856 17.5988 13.2029 16.2648 14.9537 16.0147C17.7049 15.5979 22.2902 15.0977 27.4592 15.0977C32.6281 15.0977 37.1301 15.5979 39.9647 16.0147C41.7154 16.2648 43.1327 17.5988 43.4662 19.3495C43.7997 21.267 44.2165 24.1016 44.2165 27.6032C44.1332 31.1047 43.7997 33.9393 43.4662 35.8568Z" fill="white"/>
<path d="M23.7305 33.3906V21.7188L33.7349 27.5547L23.7305 33.3906Z" fill="#FF3D00"/>
</svg>
