<svg width="54" height="60" viewBox="0 0 54 60" fill="none" xmlns="http://www.w3.org/2000/svg">
<path d="M51.5624 20.6972C53.1344 19.1038 54 16.9847 54 14.7253C54.0026 12.466 53.137 10.3442 51.5624 8.74809V20.6972ZM51.5624 20.6972L31.6237 40.9422C30.1606 42.4278 28.2116 43.2474 26.1405 43.2474H16.1937C15.6573 43.2474 15.1422 43.0263 14.7678 42.6354L51.5624 20.6972ZM50.8499 9.44978L50.8505 9.45038C52.2387 10.8575 53.0023 12.726 53 14.7242V14.7253C53 16.7243 52.2361 18.5904 50.8505 19.9949L50.8499 19.9955L30.9112 40.2405C29.6346 41.5368 27.9416 42.2474 26.1405 42.2474H16.1937C15.9328 42.2474 15.6777 42.1397 15.49 41.9437L15.4876 41.9412C15.3006 41.7473 15.195 41.481 15.2019 41.1983L15.4515 31.0104C15.4944 29.2871 16.158 27.6693 17.3244 26.4284L17.4346 26.3166L37.2771 6.16921C40.1301 3.27712 44.7652 3.27693 47.6184 6.16863C47.6186 6.16882 47.6188 6.16902 47.619 6.16921L50.8499 9.44978ZM35.6431 12.1418L34.9306 11.4183L34.2181 12.1418L18.8242 27.7738C18.8242 27.7738 18.8242 27.7738 18.8242 27.7738C17.9564 28.655 17.4651 29.8253 17.4351 31.0608C17.4351 31.0608 17.4351 31.0609 17.4351 31.061L17.2359 39.1787L17.2108 40.2032H18.2356H26.1405C27.419 40.2032 28.6205 39.6983 29.5215 38.7834L29.5216 38.7833L45.0085 23.0542L45.6994 22.3525L45.0084 21.6509L35.6431 12.1418ZM38.669 7.62412L38.6683 7.62487L37.0337 9.28028L36.3409 9.98189L37.0327 10.6845L46.3979 20.1963L47.1095 20.919L47.8221 20.1974L49.4593 18.5393L49.4603 18.5383C50.4638 17.5194 51.017 16.1613 51.017 14.7253C51.017 13.2876 50.4645 11.9266 49.4603 10.907L46.2288 7.6258L46.2276 7.62468C44.1444 5.5161 40.7542 5.51691 38.669 7.62412ZM25.2042 4.09814C25.7369 4.09814 26.1957 4.54189 26.1957 5.12021C26.1957 5.69854 25.7369 6.14229 25.2042 6.14229H15.276C11.6032 6.14229 8.50171 7.42618 6.3238 9.77084C4.15289 12.108 2.98297 15.4082 2.98297 19.299V41.7144C2.98297 45.6052 4.15289 48.9054 6.3238 51.2425C8.50171 53.5872 11.6032 54.8711 15.276 54.8711H38.7065C42.3792 54.8711 45.4813 53.5872 47.6599 51.2427C49.8315 48.9056 51.0022 45.6054 51.0022 41.7144V30.8545C51.0022 30.2762 51.4609 29.8324 51.9936 29.8324C52.5263 29.8324 52.9851 30.2762 52.9851 30.8545V41.7144C52.9851 46.347 51.5198 50.1379 49.0446 52.7624C46.5743 55.3817 43.0273 56.9152 38.7065 56.9152H15.276C10.9552 56.9152 7.40892 55.3817 4.93923 52.7625C2.46469 50.1381 1 46.3471 1 41.7144V19.299C1 14.6663 2.46469 10.8753 4.93923 8.25093C7.40892 5.63168 10.9552 4.09814 15.276 4.09814H25.2042ZM45.5163 8.32749C43.8248 6.61547 41.0739 6.61547 39.3798 8.32749H45.5163Z" fill="white" stroke="white" stroke-width="2"/>
</svg>
