<svg width="22" height="23" viewBox="0 0 22 23" fill="none" xmlns="http://www.w3.org/2000/svg">
<path d="M11.3328 11.2771C13.0321 11.2771 14.4097 9.96265 14.4097 8.34119C14.4097 6.71973 13.0321 5.40527 11.3328 5.40527C9.63344 5.40527 8.25586 6.71973 8.25586 8.34119C8.25586 9.96265 9.63344 11.2771 11.3328 11.2771Z" stroke="#100E13" stroke-linecap="round" stroke-linejoin="round"/>
<path d="M0.563477 5.40387H2.10194V3.93591C2.10194 3.15726 2.42611 2.4105 3.00315 1.85991C3.58018 1.30932 4.36281 1 5.17886 1H17.4866C18.3026 1 19.0852 1.30932 19.6623 1.85991C20.2393 2.4105 20.5635 3.15726 20.5635 3.93591V18.6155C20.5635 19.3941 20.2393 20.1409 19.6623 20.6915C19.0852 21.2421 18.3026 21.5514 17.4866 21.5514H5.17886C4.36281 21.5514 3.58018 21.2421 3.00315 20.6915C2.42611 20.1409 2.10194 19.3941 2.10194 18.6155V17.1475H0.563477M0.563477 11.2757H2.10194M0.563477 8.33978H2.10194M0.563477 14.2116H2.10194" stroke="#100E13" stroke-linecap="round" stroke-linejoin="round"/>
<path fill-rule="evenodd" clip-rule="evenodd" d="M15.9505 15.6802V14.2123C15.9505 13.4336 15.6263 12.6869 15.0493 12.1363C14.4723 11.5857 13.6896 11.2764 12.8736 11.2764H9.79665C8.9806 11.2764 8.19797 11.5857 7.62094 12.1363C7.0439 12.6869 6.71973 13.4336 6.71973 14.2123V15.6802C6.71973 16.0696 6.88181 16.4429 7.17033 16.7182C7.45885 16.9935 7.85016 17.1482 8.25819 17.1482H14.412C14.8201 17.1482 15.2114 16.9935 15.4999 16.7182C15.7884 16.4429 15.9505 16.0696 15.9505 15.6802Z" stroke="#100E13" stroke-linecap="round" stroke-linejoin="round"/>
</svg>
