<svg width="22" height="22" viewBox="0 0 22 22" fill="none" xmlns="http://www.w3.org/2000/svg">
<g clip-path="url(#clip0_2028_7083)">
<rect width="28" height="28" fill="#1F47F5"/>
<path d="M11.5539 16.8332C8.92718 16.8332 6.62768 15.0598 5.9481 12.5089C5.26852 9.958 6.37802 7.26592 8.6536 5.94642C9.75975 5.30486 11.0475 5.04833 12.315 5.21701C13.5826 5.3857 14.7584 5.97007 15.6583 6.87858L13.7128 8.84267C13.4313 8.56044 13.0967 8.33666 12.7283 8.18421C12.3599 8.03176 11.965 7.95364 11.5664 7.95435C11.1677 7.95505 10.7731 8.03457 10.4052 8.18832C10.0374 8.34207 9.7036 8.56703 9.42302 8.85025C8.85459 9.42396 8.53569 10.1989 8.53569 11.0065C8.53569 11.8142 8.85459 12.5891 9.42302 13.1628C9.7036 13.4461 10.0374 13.671 10.4052 13.8248C10.7731 13.9785 11.1677 14.058 11.5664 14.0587C11.965 14.0594 12.3599 13.9813 12.7283 13.8289C13.0967 13.6764 13.4313 13.4526 13.7128 13.1704L15.6664 15.1345C15.1276 15.6759 14.4866 16.1048 13.7806 16.3964C13.0746 16.688 12.3178 16.8365 11.5539 16.8332Z" fill="white"/>
</g>
<defs>
<clipPath id="clip0_2028_7083">
<rect width="22" height="22" rx="5" fill="white"/>
</clipPath>
</defs>
</svg>
