<svg width="82" height="37" viewBox="0 0 82 37" fill="none" xmlns="http://www.w3.org/2000/svg">
<g clip-path="url(#clip0_182_6728)" filter="url(#filter0_d_182_6728)">
<g filter="url(#filter1_d_182_6728)">
<path d="M9.25 11.9375V24.275C8.725 24.0125 8.06875 23.75 7.28125 23.75C5.44375 23.75 4 24.9312 4 26.375C4 27.8188 5.44375 29 7.28125 29C9.11875 29 10.5625 27.8188 10.5625 26.375V16.7937L19.75 13.775V20.4688C19.225 20.075 18.5688 19.8125 17.7812 19.8125C15.9438 19.8125 14.5 20.9937 14.5 22.4375C14.5 23.8813 15.9438 25.0625 17.7812 25.0625C19.6187 25.0625 21.0625 23.8813 21.0625 22.4375V8L9.25 11.9375Z" fill="black"/>
</g>
</g>
<g clip-path="url(#clip1_182_6728)" filter="url(#filter2_d_182_6728)">
<g filter="url(#filter3_d_182_6728)">
<path d="M39.5616 12.9217C41.0938 13.9341 42.9708 14.5298 44.9981 14.5298V10.924C44.6144 10.9241 44.2317 10.8871 43.8563 10.8136V13.6518C41.8293 13.6518 39.9525 13.0562 38.42 12.0439V19.4022C38.42 23.0833 35.1916 26.0671 31.2094 26.0671C29.7236 26.0671 28.3425 25.6519 27.1953 24.9398C28.5047 26.1773 30.3307 26.945 32.3508 26.945C36.3333 26.945 39.5618 23.9612 39.5618 20.28V12.9217H39.5616ZM40.9701 9.28398C40.187 8.49327 39.6728 7.47141 39.5616 6.34167V5.87793H38.4797C38.752 7.31377 39.681 8.54046 40.9701 9.28398ZM29.714 22.1151C29.2765 21.585 29.04 20.9363 29.0411 20.2694C29.0411 18.5859 30.5177 17.2208 32.3396 17.2208C32.679 17.2207 33.0165 17.2688 33.3401 17.3637V13.6773C32.9619 13.6294 32.5803 13.609 32.1989 13.6165V16.4858C31.8751 16.3909 31.5375 16.3427 31.1979 16.343C29.3761 16.343 27.8996 17.7079 27.8996 19.3917C27.8996 20.5823 28.6376 21.613 29.714 22.1151Z" fill="#FF004F"/>
</g>
<g filter="url(#filter4_d_182_6728)">
<path d="M38.4203 12.0438C39.9529 13.0562 41.8296 13.6517 43.8567 13.6517V10.8135C42.7252 10.5907 41.7235 10.0442 40.9704 9.28399C39.6812 8.54039 38.7524 7.3137 38.4801 5.87793H35.6382V20.2798C35.6318 21.9588 34.1577 23.3182 32.3398 23.3182C31.2686 23.3182 30.3169 22.8463 29.7142 22.1151C28.6379 21.613 27.8998 20.5822 27.8998 19.3918C27.8998 17.7082 29.3764 16.3431 31.1981 16.3431C31.5472 16.3431 31.8836 16.3933 32.1992 16.4859V13.6166C28.2869 13.6913 25.1406 16.646 25.1406 20.2799C25.1406 22.0939 25.9241 23.7384 27.1958 24.9399C28.343 25.6519 29.724 26.0673 31.2099 26.0673C35.1921 26.0673 38.4204 23.0832 38.4204 19.4022V12.0439L38.4203 12.0438Z" fill="black"/>
</g>
<g filter="url(#filter5_d_182_6728)">
<path d="M43.8577 10.8133V10.046C42.8373 10.0475 41.8371 9.78334 40.9714 9.28386C41.7377 10.0593 42.7468 10.5941 43.8577 10.8135V10.8133ZM38.481 5.87772C38.455 5.74054 38.4351 5.60243 38.4213 5.46374V5H34.4974V19.402C34.4911 21.0809 33.017 22.4403 31.1991 22.4403C30.6837 22.441 30.1753 22.3296 29.7151 22.1151C30.3178 22.8462 31.2695 23.318 32.3407 23.318C34.1585 23.318 35.6328 21.9587 35.6392 20.2798V5.8778H38.481V5.87772ZM32.2003 13.6164V12.7995C31.8725 12.758 31.5419 12.7373 31.211 12.7374C27.2283 12.7374 24 15.7214 24 19.402C24 21.7097 25.2688 23.7434 27.1968 24.9397C25.9252 23.7382 25.1417 22.0936 25.1417 20.2797C25.1417 16.6459 28.2879 13.6911 32.2003 13.6164Z" fill="#00F2EA"/>
</g>
</g>
<g filter="url(#filter6_d_182_6728)">
<path d="M79.5977 7.44507C79.4065 6.7792 79.0336 6.17214 78.516 5.68435C77.9984 5.19656 77.3542 4.84505 76.6477 4.66484C74.0609 4 63.65 4 63.65 4C63.65 4 53.2387 4.02012 50.6519 4.68497C49.9453 4.86519 49.3012 5.21671 48.7836 5.70452C48.266 6.19234 47.893 6.79942 47.7019 7.46532C46.9194 11.7967 46.6159 18.3968 47.7233 22.5549C47.9145 23.2208 48.2875 23.8279 48.8051 24.3157C49.3227 24.8034 49.9668 25.1549 50.6734 25.3352C53.2602 26 63.6713 26 63.6713 26C63.6713 26 74.0823 26 76.6689 25.3352C77.3755 25.155 78.0197 24.8035 78.5373 24.3157C79.0549 23.8279 79.4279 23.2208 79.6191 22.5549C80.4443 18.2174 80.6986 11.6215 79.5977 7.4452V7.44507Z" fill="#FF0000"/>
<path d="M60.3359 19.7147L68.9725 15.0004L60.3359 10.2861V19.7147Z" fill="white"/>
</g>
<defs>
<filter id="filter0_d_182_6728" x="0" y="8" width="29" height="29" filterUnits="userSpaceOnUse" color-interpolation-filters="sRGB">
<feFlood flood-opacity="0" result="BackgroundImageFix"/>
<feColorMatrix in="SourceAlpha" type="matrix" values="0 0 0 0 0 0 0 0 0 0 0 0 0 0 0 0 0 0 127 0" result="hardAlpha"/>
<feOffset dy="4"/>
<feGaussianBlur stdDeviation="2"/>
<feComposite in2="hardAlpha" operator="out"/>
<feColorMatrix type="matrix" values="0 0 0 0 0 0 0 0 0 0 0 0 0 0 0 0 0 0 0.25 0"/>
<feBlend mode="normal" in2="BackgroundImageFix" result="effect1_dropShadow_182_6728"/>
<feBlend mode="normal" in="SourceGraphic" in2="effect1_dropShadow_182_6728" result="shape"/>
</filter>
<filter id="filter1_d_182_6728" x="0" y="8" width="25.0625" height="29" filterUnits="userSpaceOnUse" color-interpolation-filters="sRGB">
<feFlood flood-opacity="0" result="BackgroundImageFix"/>
<feColorMatrix in="SourceAlpha" type="matrix" values="0 0 0 0 0 0 0 0 0 0 0 0 0 0 0 0 0 0 127 0" result="hardAlpha"/>
<feOffset dy="4"/>
<feGaussianBlur stdDeviation="2"/>
<feComposite in2="hardAlpha" operator="out"/>
<feColorMatrix type="matrix" values="0 0 0 0 0 0 0 0 0 0 0 0 0 0 0 0 0 0 0.25 0"/>
<feBlend mode="normal" in2="BackgroundImageFix" result="effect1_dropShadow_182_6728"/>
<feBlend mode="normal" in="SourceGraphic" in2="effect1_dropShadow_182_6728" result="shape"/>
</filter>
<filter id="filter2_d_182_6728" x="20" y="5" width="29" height="30" filterUnits="userSpaceOnUse" color-interpolation-filters="sRGB">
<feFlood flood-opacity="0" result="BackgroundImageFix"/>
<feColorMatrix in="SourceAlpha" type="matrix" values="0 0 0 0 0 0 0 0 0 0 0 0 0 0 0 0 0 0 127 0" result="hardAlpha"/>
<feOffset dy="4"/>
<feGaussianBlur stdDeviation="2"/>
<feComposite in2="hardAlpha" operator="out"/>
<feColorMatrix type="matrix" values="0 0 0 0 0 0 0 0 0 0 0 0 0 0 0 0 0 0 0.25 0"/>
<feBlend mode="normal" in2="BackgroundImageFix" result="effect1_dropShadow_182_6728"/>
<feBlend mode="normal" in="SourceGraphic" in2="effect1_dropShadow_182_6728" result="shape"/>
</filter>
<filter id="filter3_d_182_6728" x="23.1953" y="5.87793" width="25.8047" height="29.0674" filterUnits="userSpaceOnUse" color-interpolation-filters="sRGB">
<feFlood flood-opacity="0" result="BackgroundImageFix"/>
<feColorMatrix in="SourceAlpha" type="matrix" values="0 0 0 0 0 0 0 0 0 0 0 0 0 0 0 0 0 0 127 0" result="hardAlpha"/>
<feOffset dy="4"/>
<feGaussianBlur stdDeviation="2"/>
<feComposite in2="hardAlpha" operator="out"/>
<feColorMatrix type="matrix" values="0 0 0 0 0 0 0 0 0 0 0 0 0 0 0 0 0 0 0.25 0"/>
<feBlend mode="normal" in2="BackgroundImageFix" result="effect1_dropShadow_182_6728"/>
<feBlend mode="normal" in="SourceGraphic" in2="effect1_dropShadow_182_6728" result="shape"/>
</filter>
<filter id="filter4_d_182_6728" x="21.1406" y="5.87793" width="26.7188" height="28.1895" filterUnits="userSpaceOnUse" color-interpolation-filters="sRGB">
<feFlood flood-opacity="0" result="BackgroundImageFix"/>
<feColorMatrix in="SourceAlpha" type="matrix" values="0 0 0 0 0 0 0 0 0 0 0 0 0 0 0 0 0 0 127 0" result="hardAlpha"/>
<feOffset dy="4"/>
<feGaussianBlur stdDeviation="2"/>
<feComposite in2="hardAlpha" operator="out"/>
<feColorMatrix type="matrix" values="0 0 0 0 0 0 0 0 0 0 0 0 0 0 0 0 0 0 0.25 0"/>
<feBlend mode="normal" in2="BackgroundImageFix" result="effect1_dropShadow_182_6728"/>
<feBlend mode="normal" in="SourceGraphic" in2="effect1_dropShadow_182_6728" result="shape"/>
</filter>
<filter id="filter5_d_182_6728" x="20" y="5" width="27.8594" height="27.9395" filterUnits="userSpaceOnUse" color-interpolation-filters="sRGB">
<feFlood flood-opacity="0" result="BackgroundImageFix"/>
<feColorMatrix in="SourceAlpha" type="matrix" values="0 0 0 0 0 0 0 0 0 0 0 0 0 0 0 0 0 0 127 0" result="hardAlpha"/>
<feOffset dy="4"/>
<feGaussianBlur stdDeviation="2"/>
<feComposite in2="hardAlpha" operator="out"/>
<feColorMatrix type="matrix" values="0 0 0 0 0 0 0 0 0 0 0 0 0 0 0 0 0 0 0.25 0"/>
<feBlend mode="normal" in2="BackgroundImageFix" result="effect1_dropShadow_182_6728"/>
<feBlend mode="normal" in="SourceGraphic" in2="effect1_dropShadow_182_6728" result="shape"/>
</filter>
<filter id="filter6_d_182_6728" x="40" y="0" width="41.3359" height="30" filterUnits="userSpaceOnUse" color-interpolation-filters="sRGB">
<feFlood flood-opacity="0" result="BackgroundImageFix"/>
<feColorMatrix in="SourceAlpha" type="matrix" values="0 0 0 0 0 0 0 0 0 0 0 0 0 0 0 0 0 0 127 0" result="hardAlpha"/>
<feOffset dx="-3"/>
<feGaussianBlur stdDeviation="2"/>
<feComposite in2="hardAlpha" operator="out"/>
<feColorMatrix type="matrix" values="0 0 0 0 0 0 0 0 0 0 0 0 0 0 0 0 0 0 0.25 0"/>
<feBlend mode="normal" in2="BackgroundImageFix" result="effect1_dropShadow_182_6728"/>
<feBlend mode="normal" in="SourceGraphic" in2="effect1_dropShadow_182_6728" result="shape"/>
</filter>
<clipPath id="clip0_182_6728">
<rect width="21" height="21" fill="white" transform="translate(4 8)"/>
</clipPath>
<clipPath id="clip1_182_6728">
<rect width="21" height="22" fill="white" transform="translate(24 5)"/>
</clipPath>
</defs>
</svg>
