<svg width="138" height="55" viewBox="0 0 138 55" fill="none" xmlns="http://www.w3.org/2000/svg">
<g filter="url(#filter0_d_182_6636)">
<rect x="10" y="6" width="117.952" height="35" rx="10" fill="#E5E5E5"/>
</g>
<g filter="url(#filter1_d_182_6636)">
<rect x="15.1719" y="13" width="22.6595" height="21.9003" rx="5" fill="#0288D1"/>
</g>
<path d="M20.75 21.7318H23.2193V29.8461H20.75V21.7318ZM21.9772 20.7772H21.9634C21.2266 20.7772 20.75 20.2464 20.75 19.5834C20.75 18.9061 21.2414 18.3906 21.9916 18.3906C22.7427 18.3906 23.2055 18.9061 23.2193 19.5834C23.2193 20.2459 22.7427 20.7772 21.9772 20.7772ZM32.6026 29.8461H30.1333V25.5031C30.1333 24.4539 29.5284 23.738 28.5569 23.738C27.8157 23.738 27.4146 24.221 27.2201 24.6878C27.1489 24.8549 27.1702 25.3169 27.1702 25.5503V29.8461H24.7009V21.7318H27.1702V22.9805C27.5263 22.4478 28.0838 21.7318 29.5101 21.7318C31.2771 21.7318 32.6022 22.8058 32.6022 25.2038L32.6026 29.8461Z" fill="white"/>
<path d="M48.2852 21.0283V22H44.7158V21.0283H48.2852ZM45.0576 14.8906V22H43.832V14.8906H45.0576ZM50.375 16.7168V22H49.1934V16.7168H50.375ZM49.1152 15.3301C49.1152 15.151 49.1738 15.0029 49.291 14.8857C49.4115 14.7653 49.5775 14.7051 49.7891 14.7051C49.9974 14.7051 50.1618 14.7653 50.2822 14.8857C50.4027 15.0029 50.4629 15.151 50.4629 15.3301C50.4629 15.5059 50.4027 15.6523 50.2822 15.7695C50.1618 15.8867 49.9974 15.9453 49.7891 15.9453C49.5775 15.9453 49.4115 15.8867 49.291 15.7695C49.1738 15.6523 49.1152 15.5059 49.1152 15.3301ZM52.8311 17.8447V22H51.6543V16.7168H52.7627L52.8311 17.8447ZM52.6211 19.1631L52.2402 19.1582C52.2435 18.7839 52.2956 18.4404 52.3965 18.1279C52.5007 17.8154 52.6439 17.5469 52.8262 17.3223C53.0117 17.0977 53.2331 16.9251 53.4902 16.8047C53.7474 16.681 54.0339 16.6191 54.3496 16.6191C54.6035 16.6191 54.833 16.6549 55.0381 16.7266C55.2464 16.7949 55.4238 16.9072 55.5703 17.0635C55.7201 17.2197 55.834 17.4232 55.9121 17.6738C55.9902 17.9212 56.0293 18.2256 56.0293 18.5869V22H54.8477V18.582C54.8477 18.3281 54.8102 18.1279 54.7354 17.9814C54.6637 17.8317 54.5579 17.7259 54.418 17.6641C54.2812 17.599 54.1104 17.5664 53.9053 17.5664C53.7035 17.5664 53.5228 17.6087 53.3633 17.6934C53.2038 17.778 53.0687 17.8936 52.958 18.04C52.8506 18.1865 52.7676 18.3558 52.709 18.5479C52.6504 18.7399 52.6211 18.945 52.6211 19.1631ZM58.417 14.5V22H57.2354V14.5H58.417ZM61.6982 16.7168L59.3984 19.2656L58.1387 20.5547L57.8311 19.5586L58.7832 18.3818L60.2773 16.7168H61.6982ZM60.5312 22L58.8174 19.5195L59.5596 18.6943L61.8936 22H60.5312ZM65.5703 20.9062V14.5H66.752V22H65.6826L65.5703 20.9062ZM62.1328 19.417V19.3145C62.1328 18.9141 62.18 18.5495 62.2744 18.2207C62.3688 17.8887 62.5055 17.6038 62.6846 17.3662C62.8636 17.1253 63.0817 16.9414 63.3389 16.8145C63.596 16.6842 63.8857 16.6191 64.208 16.6191C64.527 16.6191 64.807 16.681 65.0479 16.8047C65.2887 16.9284 65.4938 17.1058 65.6631 17.3369C65.8324 17.5648 65.9674 17.8382 66.0684 18.1572C66.1693 18.473 66.2409 18.8245 66.2832 19.2119V19.5391C66.2409 19.9167 66.1693 20.2617 66.0684 20.5742C65.9674 20.8867 65.8324 21.1569 65.6631 21.3848C65.4938 21.6126 65.2871 21.7884 65.043 21.9121C64.8021 22.0358 64.5205 22.0977 64.1982 22.0977C63.8792 22.0977 63.5911 22.0309 63.334 21.8975C63.0801 21.764 62.8636 21.5768 62.6846 21.3359C62.5055 21.0951 62.3688 20.8118 62.2744 20.4863C62.18 20.1576 62.1328 19.8011 62.1328 19.417ZM63.3096 19.3145V19.417C63.3096 19.6579 63.3307 19.8825 63.373 20.0908C63.4186 20.2992 63.4886 20.4831 63.583 20.6426C63.6774 20.7988 63.7995 20.9225 63.9492 21.0137C64.1022 21.1016 64.2845 21.1455 64.4961 21.1455C64.763 21.1455 64.9827 21.0869 65.1553 20.9697C65.3278 20.8525 65.4629 20.6947 65.5605 20.4961C65.6615 20.2943 65.7298 20.0697 65.7656 19.8223V18.9385C65.7461 18.7464 65.7054 18.5674 65.6436 18.4014C65.585 18.2354 65.5052 18.0905 65.4043 17.9668C65.3034 17.8398 65.1781 17.7422 65.0283 17.6738C64.8818 17.6022 64.7077 17.5664 64.5059 17.5664C64.291 17.5664 64.1087 17.612 63.959 17.7031C63.8092 17.7943 63.6855 17.9196 63.5879 18.0791C63.4935 18.2386 63.4235 18.4242 63.3779 18.6357C63.3324 18.8473 63.3096 19.0736 63.3096 19.3145ZM69.2422 16.7168V22H68.0605V16.7168H69.2422ZM67.9824 15.3301C67.9824 15.151 68.041 15.0029 68.1582 14.8857C68.2786 14.7653 68.4447 14.7051 68.6562 14.7051C68.8646 14.7051 69.029 14.7653 69.1494 14.8857C69.2699 15.0029 69.3301 15.151 69.3301 15.3301C69.3301 15.5059 69.2699 15.6523 69.1494 15.7695C69.029 15.8867 68.8646 15.9453 68.6562 15.9453C68.4447 15.9453 68.2786 15.8867 68.1582 15.7695C68.041 15.6523 67.9824 15.5059 67.9824 15.3301ZM71.6982 17.8447V22H70.5215V16.7168H71.6299L71.6982 17.8447ZM71.4883 19.1631L71.1074 19.1582C71.1107 18.7839 71.1628 18.4404 71.2637 18.1279C71.3678 17.8154 71.5111 17.5469 71.6934 17.3223C71.8789 17.0977 72.1003 16.9251 72.3574 16.8047C72.6146 16.681 72.901 16.6191 73.2168 16.6191C73.4707 16.6191 73.7002 16.6549 73.9053 16.7266C74.1136 16.7949 74.291 16.9072 74.4375 17.0635C74.5872 17.2197 74.7012 17.4232 74.7793 17.6738C74.8574 17.9212 74.8965 18.2256 74.8965 18.5869V22H73.7148V18.582C73.7148 18.3281 73.6774 18.1279 73.6025 17.9814C73.5309 17.8317 73.4251 17.7259 73.2852 17.6641C73.1484 17.599 72.9775 17.5664 72.7725 17.5664C72.5706 17.5664 72.39 17.6087 72.2305 17.6934C72.071 17.778 71.9359 17.8936 71.8252 18.04C71.7178 18.1865 71.6348 18.3558 71.5762 18.5479C71.5176 18.7399 71.4883 18.945 71.4883 19.1631Z" fill="#493F3F"/>
<path d="M44.8354 26.4453V30H44.3716V26.4453H44.8354ZM45.978 26.4453V26.8311H43.2314V26.4453H45.978ZM46.8887 26.25V30H46.437V26.25H46.8887ZM46.7812 28.5791L46.5933 28.5718C46.5949 28.3911 46.6217 28.2243 46.6738 28.0713C46.7259 27.9167 46.7992 27.7824 46.8936 27.6685C46.988 27.5545 47.1003 27.4666 47.2305 27.4048C47.3623 27.3413 47.508 27.3096 47.6675 27.3096C47.7977 27.3096 47.9149 27.3275 48.019 27.3633C48.1232 27.3975 48.2119 27.4528 48.2852 27.5293C48.36 27.6058 48.417 27.7051 48.4561 27.8271C48.4951 27.9476 48.5146 28.0949 48.5146 28.269V30H48.0605V28.2642C48.0605 28.1258 48.0402 28.0151 47.9995 27.9321C47.9588 27.8475 47.8994 27.7865 47.8213 27.749C47.7432 27.71 47.6471 27.6904 47.5332 27.6904C47.4209 27.6904 47.3184 27.714 47.2256 27.7612C47.1344 27.8084 47.0555 27.8735 46.9888 27.9565C46.9237 28.0396 46.8724 28.1348 46.835 28.2422C46.7992 28.348 46.7812 28.4603 46.7812 28.5791ZM49.6816 27.3584V30H49.2275V27.3584H49.6816ZM49.1934 26.6577C49.1934 26.5845 49.2153 26.5226 49.2593 26.4722C49.3049 26.4217 49.3716 26.3965 49.4595 26.3965C49.5457 26.3965 49.6117 26.4217 49.6572 26.4722C49.7044 26.5226 49.728 26.5845 49.728 26.6577C49.728 26.7277 49.7044 26.7879 49.6572 26.8384C49.6117 26.8872 49.5457 26.9116 49.4595 26.9116C49.3716 26.9116 49.3049 26.8872 49.2593 26.8384C49.2153 26.7879 49.1934 26.7277 49.1934 26.6577ZM51.9448 29.2993C51.9448 29.2342 51.9302 29.174 51.9009 29.1187C51.8732 29.0617 51.8154 29.0104 51.7275 28.9648C51.6413 28.9176 51.5111 28.877 51.3369 28.8428C51.1904 28.8118 51.0578 28.7752 50.939 28.7329C50.8218 28.6906 50.7217 28.6393 50.6387 28.5791C50.5573 28.5189 50.4946 28.4481 50.4507 28.3667C50.4067 28.2853 50.3848 28.1901 50.3848 28.0811C50.3848 27.9769 50.4076 27.8784 50.4531 27.7856C50.5003 27.6929 50.5662 27.6107 50.6509 27.5391C50.7371 27.4674 50.8405 27.4113 50.9609 27.3706C51.0814 27.3299 51.2157 27.3096 51.3638 27.3096C51.5754 27.3096 51.756 27.347 51.9058 27.4219C52.0555 27.4967 52.1702 27.5968 52.25 27.7222C52.3298 27.8459 52.3696 27.9834 52.3696 28.1348H51.918C51.918 28.0615 51.896 27.9907 51.8521 27.9224C51.8097 27.8524 51.7471 27.7946 51.6641 27.749C51.5827 27.7035 51.4826 27.6807 51.3638 27.6807C51.2384 27.6807 51.1367 27.7002 51.0586 27.7393C50.9821 27.7767 50.9259 27.8247 50.8901 27.8833C50.856 27.9419 50.8389 28.0037 50.8389 28.0688C50.8389 28.1177 50.847 28.1616 50.8633 28.2007C50.8812 28.2381 50.9121 28.2731 50.9561 28.3057C51 28.3366 51.0618 28.3659 51.1416 28.3936C51.2214 28.4212 51.3231 28.4489 51.4468 28.4766C51.6632 28.5254 51.8415 28.584 51.9814 28.6523C52.1214 28.7207 52.2256 28.8045 52.2939 28.9038C52.3623 29.0031 52.3965 29.1235 52.3965 29.2651C52.3965 29.3807 52.3721 29.4865 52.3232 29.5825C52.276 29.6785 52.2069 29.7616 52.1157 29.8315C52.0262 29.8999 51.9188 29.9536 51.7935 29.9927C51.6698 30.0301 51.5306 30.0488 51.376 30.0488C51.1432 30.0488 50.9463 30.0073 50.7852 29.9243C50.624 29.8413 50.502 29.7339 50.4189 29.6021C50.3359 29.4702 50.2944 29.3311 50.2944 29.1846H50.7485C50.755 29.3083 50.7909 29.4067 50.856 29.48C50.9211 29.5516 51.0008 29.6029 51.0952 29.6338C51.1896 29.6631 51.2832 29.6777 51.376 29.6777C51.4997 29.6777 51.603 29.6615 51.686 29.6289C51.7707 29.5964 51.835 29.5516 51.8789 29.4946C51.9229 29.4377 51.9448 29.3726 51.9448 29.2993ZM54.7207 27.3584V30H54.2666V27.3584H54.7207ZM54.2324 26.6577C54.2324 26.5845 54.2544 26.5226 54.2983 26.4722C54.3439 26.4217 54.4106 26.3965 54.4985 26.3965C54.5848 26.3965 54.6507 26.4217 54.6963 26.4722C54.7435 26.5226 54.7671 26.5845 54.7671 26.6577C54.7671 26.7277 54.7435 26.7879 54.6963 26.8384C54.6507 26.8872 54.5848 26.9116 54.4985 26.9116C54.4106 26.9116 54.3439 26.8872 54.2983 26.8384C54.2544 26.7879 54.2324 26.7277 54.2324 26.6577ZM56.9839 29.2993C56.9839 29.2342 56.9692 29.174 56.9399 29.1187C56.9123 29.0617 56.8545 29.0104 56.7666 28.9648C56.6803 28.9176 56.5501 28.877 56.376 28.8428C56.2295 28.8118 56.0968 28.7752 55.978 28.7329C55.8608 28.6906 55.7607 28.6393 55.6777 28.5791C55.5964 28.5189 55.5337 28.4481 55.4897 28.3667C55.4458 28.2853 55.4238 28.1901 55.4238 28.0811C55.4238 27.9769 55.4466 27.8784 55.4922 27.7856C55.5394 27.6929 55.6053 27.6107 55.6899 27.5391C55.7762 27.4674 55.8796 27.4113 56 27.3706C56.1204 27.3299 56.2547 27.3096 56.4028 27.3096C56.6144 27.3096 56.7951 27.347 56.9448 27.4219C57.0946 27.4967 57.2093 27.5968 57.2891 27.7222C57.3688 27.8459 57.4087 27.9834 57.4087 28.1348H56.957C56.957 28.0615 56.9351 27.9907 56.8911 27.9224C56.8488 27.8524 56.7861 27.7946 56.7031 27.749C56.6217 27.7035 56.5216 27.6807 56.4028 27.6807C56.2775 27.6807 56.1758 27.7002 56.0977 27.7393C56.0212 27.7767 55.965 27.8247 55.9292 27.8833C55.895 27.9419 55.8779 28.0037 55.8779 28.0688C55.8779 28.1177 55.8861 28.1616 55.9023 28.2007C55.9202 28.2381 55.9512 28.2731 55.9951 28.3057C56.0391 28.3366 56.1009 28.3659 56.1807 28.3936C56.2604 28.4212 56.3621 28.4489 56.4858 28.4766C56.7023 28.5254 56.8805 28.584 57.0205 28.6523C57.1605 28.7207 57.2646 28.8045 57.333 28.9038C57.4014 29.0031 57.4355 29.1235 57.4355 29.2651C57.4355 29.3807 57.4111 29.4865 57.3623 29.5825C57.3151 29.6785 57.2459 29.7616 57.1548 29.8315C57.0653 29.8999 56.9578 29.9536 56.8325 29.9927C56.7088 30.0301 56.5697 30.0488 56.415 30.0488C56.1823 30.0488 55.9854 30.0073 55.8242 29.9243C55.6631 29.8413 55.541 29.7339 55.458 29.6021C55.375 29.4702 55.3335 29.3311 55.3335 29.1846H55.7876C55.7941 29.3083 55.8299 29.4067 55.895 29.48C55.9601 29.5516 56.0399 29.6029 56.1343 29.6338C56.2287 29.6631 56.3223 29.6777 56.415 29.6777C56.5387 29.6777 56.6421 29.6615 56.7251 29.6289C56.8097 29.5964 56.874 29.5516 56.918 29.4946C56.9619 29.4377 56.9839 29.3726 56.9839 29.2993ZM60.8267 29.5483V28.1885C60.8267 28.0843 60.8055 27.994 60.7632 27.9175C60.7225 27.8394 60.6606 27.7791 60.5776 27.7368C60.4946 27.6945 60.3921 27.6733 60.27 27.6733C60.1561 27.6733 60.056 27.6929 59.9697 27.7319C59.8851 27.771 59.8184 27.8223 59.7695 27.8857C59.7223 27.9492 59.6987 28.0176 59.6987 28.0908H59.2471C59.2471 27.9964 59.2715 27.9028 59.3203 27.8101C59.3691 27.7173 59.4391 27.6335 59.5303 27.5586C59.623 27.4821 59.7337 27.4219 59.8623 27.3779C59.9925 27.3324 60.1374 27.3096 60.2969 27.3096C60.4889 27.3096 60.6582 27.3421 60.8047 27.4072C60.9528 27.4723 61.0684 27.5708 61.1514 27.7026C61.236 27.8328 61.2783 27.9964 61.2783 28.1934V29.4238C61.2783 29.5117 61.2856 29.6053 61.3003 29.7046C61.3166 29.8039 61.3402 29.8893 61.3711 29.9609V30H60.8999C60.8771 29.9479 60.8592 29.8787 60.8462 29.7925C60.8332 29.7046 60.8267 29.6232 60.8267 29.5483ZM60.9048 28.3984L60.9097 28.7158H60.4531C60.3245 28.7158 60.2098 28.7264 60.1089 28.7476C60.008 28.7671 59.9233 28.7972 59.855 28.8379C59.7866 28.8786 59.7345 28.9299 59.6987 28.9917C59.6629 29.0519 59.645 29.1227 59.645 29.2041C59.645 29.2871 59.6637 29.3628 59.7012 29.4312C59.7386 29.4995 59.7948 29.554 59.8696 29.5947C59.9461 29.6338 60.0397 29.6533 60.1504 29.6533C60.2887 29.6533 60.4108 29.624 60.5166 29.5654C60.6224 29.5068 60.7062 29.4352 60.7681 29.3506C60.8315 29.266 60.8657 29.1838 60.8706 29.104L61.0635 29.3213C61.0521 29.3896 61.0212 29.4653 60.9707 29.5483C60.9202 29.6313 60.8527 29.7111 60.7681 29.7876C60.6851 29.8625 60.5858 29.9251 60.4702 29.9756C60.3563 30.0244 60.2277 30.0488 60.0845 30.0488C59.9054 30.0488 59.7484 30.0138 59.6133 29.9438C59.4798 29.8739 59.3757 29.7803 59.3008 29.6631C59.2275 29.5443 59.1909 29.4116 59.1909 29.2651C59.1909 29.1235 59.2186 28.999 59.2739 28.8916C59.3293 28.7826 59.409 28.6922 59.5132 28.6206C59.6174 28.5474 59.7427 28.492 59.8892 28.4546C60.0356 28.4172 60.1992 28.3984 60.3799 28.3984H60.9048ZM64.894 29.4873V26.25H65.3481V30H64.9331L64.894 29.4873ZM63.1167 28.7085V28.6572C63.1167 28.4554 63.1411 28.2723 63.1899 28.1079C63.2404 27.9419 63.3112 27.7995 63.4023 27.6807C63.4951 27.5618 63.605 27.4707 63.7319 27.4072C63.8605 27.3421 64.0037 27.3096 64.1616 27.3096C64.3276 27.3096 64.4725 27.3389 64.5962 27.3975C64.7215 27.4544 64.8273 27.5382 64.9136 27.6489C65.0015 27.758 65.0706 27.8898 65.1211 28.0444C65.1715 28.1991 65.2065 28.374 65.2261 28.5693V28.7939C65.2082 28.9876 65.1732 29.1618 65.1211 29.3164C65.0706 29.471 65.0015 29.6029 64.9136 29.7119C64.8273 29.821 64.7215 29.9048 64.5962 29.9634C64.4709 30.0203 64.3244 30.0488 64.1567 30.0488C64.0021 30.0488 63.8605 30.0155 63.7319 29.9487C63.605 29.882 63.4951 29.7884 63.4023 29.668C63.3112 29.5475 63.2404 29.4059 63.1899 29.2432C63.1411 29.0788 63.1167 28.9006 63.1167 28.7085ZM63.5708 28.6572V28.7085C63.5708 28.8403 63.5838 28.964 63.6099 29.0796C63.6375 29.1951 63.6799 29.2969 63.7368 29.3848C63.7938 29.4727 63.8662 29.5418 63.9541 29.5923C64.042 29.6411 64.147 29.6655 64.269 29.6655C64.4188 29.6655 64.5417 29.6338 64.6377 29.5703C64.7354 29.5068 64.8135 29.423 64.8721 29.3188C64.9307 29.2147 64.9762 29.1016 65.0088 28.9795V28.3911C64.9893 28.3016 64.9608 28.2153 64.9233 28.1323C64.8875 28.0477 64.8403 27.9728 64.7817 27.9077C64.7248 27.841 64.654 27.7881 64.5693 27.749C64.4863 27.71 64.3879 27.6904 64.2739 27.6904C64.1502 27.6904 64.0436 27.7165 63.9541 27.7686C63.8662 27.819 63.7938 27.889 63.7368 27.9785C63.6799 28.0664 63.6375 28.1689 63.6099 28.2861C63.5838 28.4017 63.5708 28.5254 63.5708 28.6572ZM67.1475 30.0488C66.9635 30.0488 66.7967 30.0179 66.647 29.9561C66.4989 29.8926 66.3711 29.8039 66.2637 29.6899C66.1579 29.576 66.0765 29.4409 66.0195 29.2847C65.9626 29.1284 65.9341 28.9575 65.9341 28.772V28.6694C65.9341 28.4546 65.9658 28.2633 66.0293 28.0957C66.0928 27.9264 66.179 27.7832 66.2881 27.666C66.3971 27.5488 66.5208 27.4601 66.6592 27.3999C66.7975 27.3397 66.9408 27.3096 67.0889 27.3096C67.2777 27.3096 67.4404 27.3421 67.5771 27.4072C67.7155 27.4723 67.8286 27.5635 67.9165 27.6807C68.0044 27.7962 68.0695 27.9329 68.1118 28.0908C68.1541 28.2471 68.1753 28.418 68.1753 28.6035V28.8062H66.2026V28.4375H67.7236V28.4033C67.7171 28.2861 67.6927 28.1722 67.6504 28.0615C67.6097 27.9508 67.5446 27.8597 67.4551 27.7881C67.3656 27.7165 67.2435 27.6807 67.0889 27.6807C66.9863 27.6807 66.8919 27.7026 66.8057 27.7466C66.7194 27.7889 66.6453 27.8524 66.5835 27.937C66.5216 28.0216 66.4736 28.125 66.4395 28.2471C66.4053 28.3691 66.3882 28.5099 66.3882 28.6694V28.772C66.3882 28.8973 66.4053 29.0153 66.4395 29.126C66.4753 29.235 66.5265 29.3311 66.5933 29.4141C66.6616 29.4971 66.7438 29.5622 66.8398 29.6094C66.9375 29.6566 67.0482 29.6802 67.1719 29.6802C67.3314 29.6802 67.4665 29.6476 67.5771 29.5825C67.6878 29.5174 67.7847 29.4303 67.8677 29.3213L68.1411 29.5386C68.0841 29.6248 68.0117 29.707 67.9238 29.7852C67.8359 29.8633 67.7277 29.9268 67.5991 29.9756C67.4722 30.0244 67.3216 30.0488 67.1475 30.0488ZM70.2407 29.2993C70.2407 29.2342 70.2261 29.174 70.1968 29.1187C70.1691 29.0617 70.1113 29.0104 70.0234 28.9648C69.9372 28.9176 69.807 28.877 69.6328 28.8428C69.4863 28.8118 69.3537 28.7752 69.2349 28.7329C69.1177 28.6906 69.0176 28.6393 68.9346 28.5791C68.8532 28.5189 68.7905 28.4481 68.7466 28.3667C68.7026 28.2853 68.6807 28.1901 68.6807 28.0811C68.6807 27.9769 68.7035 27.8784 68.749 27.7856C68.7962 27.6929 68.8621 27.6107 68.9468 27.5391C69.033 27.4674 69.1364 27.4113 69.2568 27.3706C69.3773 27.3299 69.5116 27.3096 69.6597 27.3096C69.8713 27.3096 70.0519 27.347 70.2017 27.4219C70.3514 27.4967 70.4661 27.5968 70.5459 27.7222C70.6257 27.8459 70.6655 27.9834 70.6655 28.1348H70.2139C70.2139 28.0615 70.1919 27.9907 70.1479 27.9224C70.1056 27.8524 70.043 27.7946 69.96 27.749C69.8786 27.7035 69.7785 27.6807 69.6597 27.6807C69.5343 27.6807 69.4326 27.7002 69.3545 27.7393C69.278 27.7767 69.2218 27.8247 69.186 27.8833C69.1519 27.9419 69.1348 28.0037 69.1348 28.0688C69.1348 28.1177 69.1429 28.1616 69.1592 28.2007C69.1771 28.2381 69.208 28.2731 69.252 28.3057C69.2959 28.3366 69.3577 28.3659 69.4375 28.3936C69.5173 28.4212 69.619 28.4489 69.7427 28.4766C69.9591 28.5254 70.1374 28.584 70.2773 28.6523C70.4173 28.7207 70.5215 28.8045 70.5898 28.9038C70.6582 29.0031 70.6924 29.1235 70.6924 29.2651C70.6924 29.3807 70.668 29.4865 70.6191 29.5825C70.5719 29.6785 70.5028 29.7616 70.4116 29.8315C70.3221 29.8999 70.2147 29.9536 70.0894 29.9927C69.9657 30.0301 69.8265 30.0488 69.6719 30.0488C69.4391 30.0488 69.2422 30.0073 69.0811 29.9243C68.9199 29.8413 68.7979 29.7339 68.7148 29.6021C68.6318 29.4702 68.5903 29.3311 68.5903 29.1846H69.0444C69.0509 29.3083 69.0868 29.4067 69.1519 29.48C69.217 29.5516 69.2967 29.6029 69.3911 29.6338C69.4855 29.6631 69.5791 29.6777 69.6719 29.6777C69.7956 29.6777 69.8989 29.6615 69.9819 29.6289C70.0666 29.5964 70.1309 29.5516 70.1748 29.4946C70.2188 29.4377 70.2407 29.3726 70.2407 29.2993ZM72.3428 29.6777C72.4502 29.6777 72.5495 29.6558 72.6406 29.6118C72.7318 29.5679 72.8066 29.5076 72.8652 29.4312C72.9238 29.353 72.9572 29.2643 72.9653 29.165H73.395C73.3869 29.3213 73.334 29.467 73.2363 29.6021C73.1403 29.7355 73.0142 29.8438 72.8579 29.9268C72.7017 30.0081 72.5299 30.0488 72.3428 30.0488C72.1442 30.0488 71.9709 30.0138 71.8228 29.9438C71.6763 29.8739 71.5542 29.7778 71.4565 29.6558C71.3605 29.5337 71.2881 29.3937 71.2393 29.2358C71.1921 29.0763 71.1685 28.9079 71.1685 28.7305V28.6279C71.1685 28.4505 71.1921 28.2829 71.2393 28.125C71.2881 27.9655 71.3605 27.8247 71.4565 27.7026C71.5542 27.5806 71.6763 27.4845 71.8228 27.4146C71.9709 27.3446 72.1442 27.3096 72.3428 27.3096C72.5495 27.3096 72.7301 27.3519 72.8848 27.4365C73.0394 27.5195 73.1606 27.6335 73.2485 27.7783C73.3381 27.9215 73.3869 28.0843 73.395 28.2666H72.9653C72.9572 28.1576 72.9263 28.0591 72.8726 27.9712C72.8205 27.8833 72.7489 27.8133 72.6577 27.7612C72.5682 27.7075 72.4632 27.6807 72.3428 27.6807C72.2044 27.6807 72.0881 27.7083 71.9937 27.7637C71.9009 27.8174 71.8268 27.8906 71.7715 27.9834C71.7178 28.0745 71.6787 28.1763 71.6543 28.2886C71.6315 28.3993 71.6201 28.5124 71.6201 28.6279V28.7305C71.6201 28.846 71.6315 28.96 71.6543 29.0723C71.6771 29.1846 71.7153 29.2863 71.769 29.3774C71.8244 29.4686 71.8984 29.5418 71.9912 29.5972C72.0856 29.6509 72.2028 29.6777 72.3428 29.6777ZM74.3545 27.7734V30H73.9028V27.3584H74.3423L74.3545 27.7734ZM75.1797 27.3438L75.1772 27.7637C75.1398 27.7555 75.104 27.7507 75.0698 27.749C75.0373 27.7458 74.9998 27.7441 74.9575 27.7441C74.8534 27.7441 74.7614 27.7604 74.6816 27.793C74.6019 27.8255 74.5343 27.8711 74.479 27.9297C74.4237 27.9883 74.3797 28.0583 74.3472 28.1396C74.3162 28.2194 74.2959 28.3073 74.2861 28.4033L74.1592 28.4766C74.1592 28.3171 74.1746 28.1673 74.2056 28.0273C74.2381 27.8874 74.2878 27.7637 74.3545 27.6562C74.4212 27.5472 74.5059 27.4626 74.6084 27.4023C74.7126 27.3405 74.8363 27.3096 74.9795 27.3096C75.012 27.3096 75.0495 27.3136 75.0918 27.3218C75.1341 27.3283 75.1634 27.3356 75.1797 27.3438ZM76.0879 27.3584V30H75.6338V27.3584H76.0879ZM75.5996 26.6577C75.5996 26.5845 75.6216 26.5226 75.6655 26.4722C75.7111 26.4217 75.7778 26.3965 75.8657 26.3965C75.952 26.3965 76.0179 26.4217 76.0635 26.4722C76.1107 26.5226 76.1343 26.5845 76.1343 26.6577C76.1343 26.7277 76.1107 26.7879 76.0635 26.8384C76.0179 26.8872 75.952 26.9116 75.8657 26.9116C75.7778 26.9116 75.7111 26.8872 75.6655 26.8384C75.6216 26.7879 75.5996 26.7277 75.5996 26.6577ZM77.2646 27.8662V31.0156H76.8105V27.3584H77.2256L77.2646 27.8662ZM79.0444 28.6572V28.7085C79.0444 28.9006 79.0216 29.0788 78.9761 29.2432C78.9305 29.4059 78.8638 29.5475 78.7759 29.668C78.6896 29.7884 78.583 29.882 78.4561 29.9487C78.3291 30.0155 78.1834 30.0488 78.019 30.0488C77.8514 30.0488 77.7033 30.0212 77.5747 29.9658C77.4461 29.9105 77.3371 29.8299 77.2476 29.7241C77.158 29.6183 77.0864 29.4914 77.0327 29.3433C76.9806 29.1951 76.9448 29.0283 76.9253 28.8428V28.5693C76.9448 28.374 76.9814 28.1991 77.0352 28.0444C77.0889 27.8898 77.1597 27.758 77.2476 27.6489C77.3371 27.5382 77.4453 27.4544 77.5723 27.3975C77.6992 27.3389 77.8457 27.3096 78.0117 27.3096C78.1777 27.3096 78.325 27.3421 78.4536 27.4072C78.5822 27.4707 78.6904 27.5618 78.7783 27.6807C78.8662 27.7995 78.9321 27.9419 78.9761 28.1079C79.0216 28.2723 79.0444 28.4554 79.0444 28.6572ZM78.5903 28.7085V28.6572C78.5903 28.5254 78.5765 28.4017 78.5488 28.2861C78.5212 28.1689 78.478 28.0664 78.4194 27.9785C78.3625 27.889 78.2892 27.819 78.1997 27.7686C78.1102 27.7165 78.0036 27.6904 77.8799 27.6904C77.766 27.6904 77.6667 27.71 77.582 27.749C77.499 27.7881 77.4282 27.841 77.3696 27.9077C77.311 27.9728 77.263 28.0477 77.2256 28.1323C77.1898 28.2153 77.1629 28.3016 77.145 28.3911V29.0234C77.1776 29.1374 77.2231 29.2448 77.2817 29.3457C77.3403 29.445 77.4185 29.5256 77.5161 29.5874C77.6138 29.6476 77.7367 29.6777 77.8848 29.6777C78.0068 29.6777 78.1118 29.6525 78.1997 29.6021C78.2892 29.55 78.3625 29.4792 78.4194 29.3896C78.478 29.3001 78.5212 29.1976 78.5488 29.082C78.5765 28.9648 78.5903 28.8403 78.5903 28.7085ZM80.7266 27.3584V27.7051H79.2983V27.3584H80.7266ZM79.7817 26.7163H80.2334V29.3457C80.2334 29.4352 80.2472 29.5028 80.2749 29.5483C80.3026 29.5939 80.3384 29.624 80.3823 29.6387C80.4263 29.6533 80.4735 29.6606 80.5239 29.6606C80.5614 29.6606 80.6004 29.6574 80.6411 29.6509C80.6834 29.6427 80.7152 29.6362 80.7363 29.6313L80.7388 30C80.703 30.0114 80.6558 30.022 80.5972 30.0317C80.5402 30.0431 80.471 30.0488 80.3896 30.0488C80.279 30.0488 80.1772 30.0269 80.0845 29.9829C79.9917 29.939 79.9176 29.8657 79.8623 29.7632C79.8086 29.659 79.7817 29.519 79.7817 29.3433V26.7163ZM81.7471 27.3584V30H81.293V27.3584H81.7471ZM81.2588 26.6577C81.2588 26.5845 81.2808 26.5226 81.3247 26.4722C81.3703 26.4217 81.437 26.3965 81.5249 26.3965C81.6112 26.3965 81.6771 26.4217 81.7227 26.4722C81.7699 26.5226 81.7935 26.5845 81.7935 26.6577C81.7935 26.7277 81.7699 26.7879 81.7227 26.8384C81.6771 26.8872 81.6112 26.9116 81.5249 26.9116C81.437 26.9116 81.3703 26.8872 81.3247 26.8384C81.2808 26.7879 81.2588 26.7277 81.2588 26.6577ZM82.3525 28.7085V28.6523C82.3525 28.4619 82.3802 28.2853 82.4355 28.1226C82.4909 27.9582 82.5706 27.8158 82.6748 27.6953C82.779 27.5732 82.9051 27.4788 83.0532 27.4121C83.2013 27.3438 83.3674 27.3096 83.5513 27.3096C83.7368 27.3096 83.9036 27.3438 84.0518 27.4121C84.2015 27.4788 84.3285 27.5732 84.4326 27.6953C84.5384 27.8158 84.619 27.9582 84.6743 28.1226C84.7297 28.2853 84.7573 28.4619 84.7573 28.6523V28.7085C84.7573 28.8989 84.7297 29.0755 84.6743 29.2383C84.619 29.401 84.5384 29.5435 84.4326 29.6655C84.3285 29.786 84.2023 29.8804 84.0542 29.9487C83.9077 30.0155 83.7417 30.0488 83.5562 30.0488C83.3706 30.0488 83.2038 30.0155 83.0557 29.9487C82.9076 29.8804 82.7806 29.786 82.6748 29.6655C82.5706 29.5435 82.4909 29.401 82.4355 29.2383C82.3802 29.0755 82.3525 28.8989 82.3525 28.7085ZM82.8042 28.6523V28.7085C82.8042 28.8403 82.8197 28.9648 82.8506 29.082C82.8815 29.1976 82.9279 29.3001 82.9897 29.3896C83.0532 29.4792 83.1322 29.55 83.2266 29.6021C83.321 29.6525 83.4308 29.6777 83.5562 29.6777C83.6799 29.6777 83.7881 29.6525 83.8809 29.6021C83.9753 29.55 84.0534 29.4792 84.1152 29.3896C84.1771 29.3001 84.2235 29.1976 84.2544 29.082C84.2869 28.9648 84.3032 28.8403 84.3032 28.7085V28.6523C84.3032 28.5221 84.2869 28.3993 84.2544 28.2837C84.2235 28.1665 84.1763 28.0632 84.1128 27.9736C84.0509 27.8825 83.9728 27.8109 83.8784 27.7588C83.7856 27.7067 83.6766 27.6807 83.5513 27.6807C83.4276 27.6807 83.3185 27.7067 83.2241 27.7588C83.1313 27.8109 83.0532 27.8825 82.9897 27.9736C82.9279 28.0632 82.8815 28.1665 82.8506 28.2837C82.8197 28.3993 82.8042 28.5221 82.8042 28.6523ZM85.7754 27.9224V30H85.3237V27.3584H85.751L85.7754 27.9224ZM85.668 28.5791L85.48 28.5718C85.4816 28.3911 85.5085 28.2243 85.5605 28.0713C85.6126 27.9167 85.6859 27.7824 85.7803 27.6685C85.8747 27.5545 85.987 27.4666 86.1172 27.4048C86.249 27.3413 86.3947 27.3096 86.5542 27.3096C86.6844 27.3096 86.8016 27.3275 86.9058 27.3633C87.0099 27.3975 87.0986 27.4528 87.1719 27.5293C87.2467 27.6058 87.3037 27.7051 87.3428 27.8271C87.3818 27.9476 87.4014 28.0949 87.4014 28.269V30H86.9473V28.2642C86.9473 28.1258 86.9269 28.0151 86.8862 27.9321C86.8455 27.8475 86.7861 27.7865 86.708 27.749C86.6299 27.71 86.5339 27.6904 86.4199 27.6904C86.3076 27.6904 86.2051 27.714 86.1123 27.7612C86.0212 27.8084 85.9422 27.8735 85.8755 27.9565C85.8104 28.0396 85.7591 28.1348 85.7217 28.2422C85.6859 28.348 85.668 28.4603 85.668 28.5791ZM89.208 28.7085V28.6523C89.208 28.4619 89.2357 28.2853 89.291 28.1226C89.3464 27.9582 89.4261 27.8158 89.5303 27.6953C89.6344 27.5732 89.7606 27.4788 89.9087 27.4121C90.0568 27.3438 90.2228 27.3096 90.4067 27.3096C90.5923 27.3096 90.7591 27.3438 90.9072 27.4121C91.057 27.4788 91.1839 27.5732 91.2881 27.6953C91.3939 27.8158 91.4744 27.9582 91.5298 28.1226C91.5851 28.2853 91.6128 28.4619 91.6128 28.6523V28.7085C91.6128 28.8989 91.5851 29.0755 91.5298 29.2383C91.4744 29.401 91.3939 29.5435 91.2881 29.6655C91.1839 29.786 91.0578 29.8804 90.9097 29.9487C90.7632 30.0155 90.5972 30.0488 90.4116 30.0488C90.2261 30.0488 90.0592 30.0155 89.9111 29.9487C89.763 29.8804 89.6361 29.786 89.5303 29.6655C89.4261 29.5435 89.3464 29.401 89.291 29.2383C89.2357 29.0755 89.208 28.8989 89.208 28.7085ZM89.6597 28.6523V28.7085C89.6597 28.8403 89.6751 28.9648 89.7061 29.082C89.737 29.1976 89.7834 29.3001 89.8452 29.3896C89.9087 29.4792 89.9876 29.55 90.082 29.6021C90.1764 29.6525 90.2863 29.6777 90.4116 29.6777C90.5353 29.6777 90.6436 29.6525 90.7363 29.6021C90.8307 29.55 90.9089 29.4792 90.9707 29.3896C91.0326 29.3001 91.0789 29.1976 91.1099 29.082C91.1424 28.9648 91.1587 28.8403 91.1587 28.7085V28.6523C91.1587 28.5221 91.1424 28.3993 91.1099 28.2837C91.0789 28.1665 91.0317 28.0632 90.9683 27.9736C90.9064 27.8825 90.8283 27.8109 90.7339 27.7588C90.6411 27.7067 90.5321 27.6807 90.4067 27.6807C90.283 27.6807 90.174 27.7067 90.0796 27.7588C89.9868 27.8109 89.9087 27.8825 89.8452 27.9736C89.7834 28.0632 89.737 28.1665 89.7061 28.2837C89.6751 28.3993 89.6597 28.5221 89.6597 28.6523ZM92.853 30H92.4014V27.0801C92.4014 26.8896 92.4355 26.7293 92.5039 26.5991C92.5739 26.4673 92.674 26.368 92.8042 26.3013C92.9344 26.2329 93.089 26.1987 93.2681 26.1987C93.3201 26.1987 93.3722 26.202 93.4243 26.2085C93.478 26.215 93.5301 26.2248 93.5806 26.2378L93.5562 26.6064C93.522 26.5983 93.4829 26.5926 93.439 26.5894C93.3966 26.5861 93.3543 26.5845 93.312 26.5845C93.216 26.5845 93.133 26.604 93.063 26.6431C92.9946 26.6805 92.9425 26.7358 92.9067 26.8091C92.8709 26.8823 92.853 26.9727 92.853 27.0801V30ZM93.4146 27.3584V27.7051H91.9839V27.3584H93.4146ZM95.8267 29.5312L96.5054 27.3584H96.8032L96.7446 27.7905L96.0537 30H95.7632L95.8267 29.5312ZM95.3701 27.3584L95.9487 29.5557L95.9902 30H95.6851L94.9185 27.3584H95.3701ZM97.4526 29.5386L98.0044 27.3584H98.4536L97.687 30H97.3843L97.4526 29.5386ZM96.8691 27.3584L97.5332 29.4946L97.6089 30H97.3208L96.6104 27.7856L96.5518 27.3584H96.8691ZM99.3691 26.25V30H98.9175V26.25H99.3691ZM99.2617 28.5791L99.0737 28.5718C99.0754 28.3911 99.1022 28.2243 99.1543 28.0713C99.2064 27.9167 99.2796 27.7824 99.374 27.6685C99.4684 27.5545 99.5807 27.4666 99.7109 27.4048C99.8428 27.3413 99.9884 27.3096 100.148 27.3096C100.278 27.3096 100.395 27.3275 100.5 27.3633C100.604 27.3975 100.692 27.4528 100.766 27.5293C100.84 27.6058 100.897 27.7051 100.937 27.8271C100.976 27.9476 100.995 28.0949 100.995 28.269V30H100.541V28.2642C100.541 28.1258 100.521 28.0151 100.48 27.9321C100.439 27.8475 100.38 27.7865 100.302 27.749C100.224 27.71 100.128 27.6904 100.014 27.6904C99.9014 27.6904 99.7988 27.714 99.7061 27.7612C99.6149 27.8084 99.536 27.8735 99.4692 27.9565C99.4041 28.0396 99.3529 28.1348 99.3154 28.2422C99.2796 28.348 99.2617 28.4603 99.2617 28.5791ZM103.229 29.5483V28.1885C103.229 28.0843 103.208 27.994 103.166 27.9175C103.125 27.8394 103.063 27.7791 102.98 27.7368C102.897 27.6945 102.794 27.6733 102.672 27.6733C102.558 27.6733 102.458 27.6929 102.372 27.7319C102.287 27.771 102.221 27.8223 102.172 27.8857C102.125 27.9492 102.101 28.0176 102.101 28.0908H101.649C101.649 27.9964 101.674 27.9028 101.723 27.8101C101.771 27.7173 101.841 27.6335 101.933 27.5586C102.025 27.4821 102.136 27.4219 102.265 27.3779C102.395 27.3324 102.54 27.3096 102.699 27.3096C102.891 27.3096 103.061 27.3421 103.207 27.4072C103.355 27.4723 103.471 27.5708 103.554 27.7026C103.638 27.8328 103.681 27.9964 103.681 28.1934V29.4238C103.681 29.5117 103.688 29.6053 103.703 29.7046C103.719 29.8039 103.743 29.8893 103.773 29.9609V30H103.302C103.279 29.9479 103.262 29.8787 103.249 29.7925C103.236 29.7046 103.229 29.6232 103.229 29.5483ZM103.307 28.3984L103.312 28.7158H102.855C102.727 28.7158 102.612 28.7264 102.511 28.7476C102.41 28.7671 102.326 28.7972 102.257 28.8379C102.189 28.8786 102.137 28.9299 102.101 28.9917C102.065 29.0519 102.047 29.1227 102.047 29.2041C102.047 29.2871 102.066 29.3628 102.104 29.4312C102.141 29.4995 102.197 29.554 102.272 29.5947C102.348 29.6338 102.442 29.6533 102.553 29.6533C102.691 29.6533 102.813 29.624 102.919 29.5654C103.025 29.5068 103.109 29.4352 103.17 29.3506C103.234 29.266 103.268 29.1838 103.273 29.104L103.466 29.3213C103.454 29.3896 103.424 29.4653 103.373 29.5483C103.323 29.6313 103.255 29.7111 103.17 29.7876C103.087 29.8625 102.988 29.9251 102.873 29.9756C102.759 30.0244 102.63 30.0488 102.487 30.0488C102.308 30.0488 102.151 30.0138 102.016 29.9438C101.882 29.8739 101.778 29.7803 101.703 29.6631C101.63 29.5443 101.593 29.4116 101.593 29.2651C101.593 29.1235 101.621 28.999 101.676 28.8916C101.732 28.7826 101.811 28.6922 101.916 28.6206C102.02 28.5474 102.145 28.492 102.292 28.4546C102.438 28.4172 102.602 28.3984 102.782 28.3984H103.307ZM105.497 27.3584V27.7051H104.069V27.3584H105.497ZM104.552 26.7163H105.004V29.3457C105.004 29.4352 105.018 29.5028 105.045 29.5483C105.073 29.5939 105.109 29.624 105.153 29.6387C105.197 29.6533 105.244 29.6606 105.294 29.6606C105.332 29.6606 105.371 29.6574 105.412 29.6509C105.454 29.6427 105.486 29.6362 105.507 29.6313L105.509 30C105.473 30.0114 105.426 30.022 105.368 30.0317C105.311 30.0431 105.242 30.0488 105.16 30.0488C105.049 30.0488 104.948 30.0269 104.855 29.9829C104.762 29.939 104.688 29.8657 104.633 29.7632C104.579 29.659 104.552 29.519 104.552 29.3433V26.7163ZM108.373 27.3584V27.7051H106.945V27.3584H108.373ZM107.428 26.7163H107.88V29.3457C107.88 29.4352 107.894 29.5028 107.921 29.5483C107.949 29.5939 107.985 29.624 108.029 29.6387C108.073 29.6533 108.12 29.6606 108.17 29.6606C108.208 29.6606 108.247 29.6574 108.288 29.6509C108.33 29.6427 108.362 29.6362 108.383 29.6313L108.385 30C108.349 30.0114 108.302 30.022 108.244 30.0317C108.187 30.0431 108.118 30.0488 108.036 30.0488C107.925 30.0488 107.824 30.0269 107.731 29.9829C107.638 29.939 107.564 29.8657 107.509 29.7632C107.455 29.659 107.428 29.519 107.428 29.3433V26.7163ZM109.354 26.25V30H108.903V26.25H109.354ZM109.247 28.5791L109.059 28.5718C109.061 28.3911 109.088 28.2243 109.14 28.0713C109.192 27.9167 109.265 27.7824 109.359 27.6685C109.454 27.5545 109.566 27.4666 109.696 27.4048C109.828 27.3413 109.974 27.3096 110.133 27.3096C110.264 27.3096 110.381 27.3275 110.485 27.3633C110.589 27.3975 110.678 27.4528 110.751 27.5293C110.826 27.6058 110.883 27.7051 110.922 27.8271C110.961 27.9476 110.98 28.0949 110.98 28.269V30H110.526V28.2642C110.526 28.1258 110.506 28.0151 110.465 27.9321C110.425 27.8475 110.365 27.7865 110.287 27.749C110.209 27.71 110.113 27.6904 109.999 27.6904C109.887 27.6904 109.784 27.714 109.691 27.7612C109.6 27.8084 109.521 27.8735 109.455 27.9565C109.389 28.0396 109.338 28.1348 109.301 28.2422C109.265 28.348 109.247 28.4603 109.247 28.5791ZM112.753 30.0488C112.569 30.0488 112.402 30.0179 112.252 29.9561C112.104 29.8926 111.977 29.8039 111.869 29.6899C111.763 29.576 111.682 29.4409 111.625 29.2847C111.568 29.1284 111.54 28.9575 111.54 28.772V28.6694C111.54 28.4546 111.571 28.2633 111.635 28.0957C111.698 27.9264 111.785 27.7832 111.894 27.666C112.003 27.5488 112.126 27.4601 112.265 27.3999C112.403 27.3397 112.546 27.3096 112.694 27.3096C112.883 27.3096 113.046 27.3421 113.183 27.4072C113.321 27.4723 113.434 27.5635 113.522 27.6807C113.61 27.7962 113.675 27.9329 113.717 28.0908C113.76 28.2471 113.781 28.418 113.781 28.6035V28.8062H111.808V28.4375H113.329V28.4033C113.323 28.2861 113.298 28.1722 113.256 28.0615C113.215 27.9508 113.15 27.8597 113.061 27.7881C112.971 27.7165 112.849 27.6807 112.694 27.6807C112.592 27.6807 112.497 27.7026 112.411 27.7466C112.325 27.7889 112.251 27.8524 112.189 27.937C112.127 28.0216 112.079 28.125 112.045 28.2471C112.011 28.3691 111.994 28.5099 111.994 28.6694V28.772C111.994 28.8973 112.011 29.0153 112.045 29.126C112.081 29.235 112.132 29.3311 112.199 29.4141C112.267 29.4971 112.349 29.5622 112.445 29.6094C112.543 29.6566 112.654 29.6802 112.777 29.6802C112.937 29.6802 113.072 29.6476 113.183 29.5825C113.293 29.5174 113.39 29.4303 113.473 29.3213L113.747 29.5386C113.69 29.6248 113.617 29.707 113.529 29.7852C113.441 29.8633 113.333 29.9268 113.205 29.9756C113.078 30.0244 112.927 30.0488 112.753 30.0488ZM114.315 29.7607C114.315 29.6842 114.339 29.62 114.386 29.5679C114.435 29.5142 114.505 29.4873 114.596 29.4873C114.687 29.4873 114.757 29.5142 114.804 29.5679C114.853 29.62 114.877 29.6842 114.877 29.7607C114.877 29.8356 114.853 29.8991 114.804 29.9512C114.757 30.0033 114.687 30.0293 114.596 30.0293C114.505 30.0293 114.435 30.0033 114.386 29.9512C114.339 29.8991 114.315 29.8356 114.315 29.7607ZM115.634 29.7607C115.634 29.6842 115.657 29.62 115.705 29.5679C115.753 29.5142 115.823 29.4873 115.915 29.4873C116.006 29.4873 116.075 29.5142 116.122 29.5679C116.171 29.62 116.195 29.6842 116.195 29.7607C116.195 29.8356 116.171 29.8991 116.122 29.9512C116.075 30.0033 116.006 30.0293 115.915 30.0293C115.823 30.0293 115.753 30.0033 115.705 29.9512C115.657 29.8991 115.634 29.8356 115.634 29.7607Z" fill="#858585"/>
<defs>
<filter id="filter0_d_182_6636" x="0" y="0" width="137.953" height="55" filterUnits="userSpaceOnUse" color-interpolation-filters="sRGB">
<feFlood flood-opacity="0" result="BackgroundImageFix"/>
<feColorMatrix in="SourceAlpha" type="matrix" values="0 0 0 0 0 0 0 0 0 0 0 0 0 0 0 0 0 0 127 0" result="hardAlpha"/>
<feOffset dy="4"/>
<feGaussianBlur stdDeviation="5"/>
<feComposite in2="hardAlpha" operator="out"/>
<feColorMatrix type="matrix" values="0 0 0 0 0.270588 0 0 0 0 0.164706 0 0 0 0 0.486275 0 0 0 0.1 0"/>
<feBlend mode="normal" in2="BackgroundImageFix" result="effect1_dropShadow_182_6636"/>
<feBlend mode="normal" in="SourceGraphic" in2="effect1_dropShadow_182_6636" result="shape"/>
</filter>
<filter id="filter1_d_182_6636" x="11.1719" y="13" width="30.6562" height="29.9004" filterUnits="userSpaceOnUse" color-interpolation-filters="sRGB">
<feFlood flood-opacity="0" result="BackgroundImageFix"/>
<feColorMatrix in="SourceAlpha" type="matrix" values="0 0 0 0 0 0 0 0 0 0 0 0 0 0 0 0 0 0 127 0" result="hardAlpha"/>
<feOffset dy="4"/>
<feGaussianBlur stdDeviation="2"/>
<feComposite in2="hardAlpha" operator="out"/>
<feColorMatrix type="matrix" values="0 0 0 0 0 0 0 0 0 0 0 0 0 0 0 0 0 0 0.4 0"/>
<feBlend mode="normal" in2="BackgroundImageFix" result="effect1_dropShadow_182_6636"/>
<feBlend mode="normal" in="SourceGraphic" in2="effect1_dropShadow_182_6636" result="shape"/>
</filter>
</defs>
</svg>
