<svg width="90" height="19" viewBox="0 0 90 19" fill="none" xmlns="http://www.w3.org/2000/svg">
<path fill-rule="evenodd" clip-rule="evenodd" d="M13.564 1.14775V3.15897C13.564 3.15897 13.5378 3.73759 12.5152 3.73759H4.19825C4.19825 3.73759 3.36404 3.68292 3.36404 4.61943V7.20927C3.36404 7.20927 3.52524 7.89824 4.49445 7.89824H11.1691C11.1691 7.89824 14.0486 8.14577 14.0486 11.2874V15.7224C14.0486 15.7224 14.0214 19.0002 9.66191 19.0002H1.37221C1.37221 19.0002 0 18.9476 0 17.7615V16.4392C0 16.4392 0.027202 15.5306 1.26441 15.5306H10.6342C10.6342 15.5306 11.8432 13.9598 10.7409 11.1492H3.33684C3.33684 11.1492 0.430202 10.8738 0.296204 8.22828C0.162207 5.58275 -0.269003 0.569136 3.09504 0.569136H12.4124C13.1579 0.556759 13.569 0.689808 13.569 1.14775" fill="black"/>
<path fill-rule="evenodd" clip-rule="evenodd" d="M20.9092 0.0299145H22.6904C22.6904 0.0299145 23.4803 -0.0732269 23.6858 0.717854C23.8914 1.50893 27.602 14.4354 27.602 14.4354L31.6803 1.36144C31.6803 1.36144 31.9896 0.0206292 32.972 0.0206292C33.9543 0.0206292 35.0444 -0.213499 35.4343 0.999423C35.8242 2.21235 39.431 14.4169 39.431 14.4169L43.8388 0.67557C43.8388 0.67557 44.0736 0 44.6328 0H46.679C46.7596 0.0165311 46.8359 0.0505674 46.9026 0.0998158C46.9692 0.149064 47.0249 0.212384 47.0656 0.285497C47.1064 0.35861 47.1314 0.43982 47.1389 0.523655C47.1464 0.60749 47.1363 0.692001 47.1092 0.771489C46.948 1.41921 41.8702 17.0139 41.8702 17.0139C41.8702 17.0139 41.2506 18.956 39.4613 18.956C37.6719 18.956 36.7158 16.4353 36.7158 16.4353L33.5926 5.69022L30.1762 16.7602C30.1762 16.7602 29.6039 18.823 27.5456 18.823C25.4873 18.823 24.7729 15.9433 24.7729 15.9433L20.2916 0.917945C20.2916 0.917945 20.0558 0.0175378 20.9092 0.0299145Z" fill="black"/>
<path fill-rule="evenodd" clip-rule="evenodd" d="M57.9948 3.42424H64.2412C64.2412 3.42424 66.2562 3.25921 66.2562 5.43546V13.1771C66.2562 13.1771 66.364 15.3266 64.342 15.3266H57.7771C57.7771 15.3266 56.4583 15.4637 56.4583 13.3669V4.96411C56.4583 4.96411 56.4583 3.44899 57.9927 3.41702L57.9948 3.42424ZM57.9655 0H64.9364C64.9364 0 69.2425 0.551796 69.2425 4.49173V13.9692C69.2425 13.9692 69.2697 18.5981 64.3712 18.5981H57.9121C57.9121 18.5981 53.3905 18.5156 53.3905 13.338C53.3905 8.16041 53.3633 4.30092 53.3633 4.30092C53.3633 4.30092 53.3603 0.059825 57.9655 0.00412961V0Z" fill="black"/>
<path fill-rule="evenodd" clip-rule="evenodd" d="M76.382 0.326172H86.0701C86.0701 0.326172 89.0191 0.48088 89.8653 3.71534C89.8653 3.71534 90.9686 11.0991 86.8781 11.0991H78.4272V17.9734C78.4272 17.9734 78.2519 18.9377 77.4046 18.9377H76.0455C76.0455 18.9377 75.1438 18.9233 75.1438 17.6557V8.83209C75.1438 8.83209 75.2375 8.08846 76.2873 8.08846H85.1885C85.1885 8.08846 86.9517 8.21945 86.9517 6.16697V4.51674C86.9517 4.51674 87.0595 3.62148 84.987 3.62148H76.0112C76.0112 3.62148 75.1367 3.63489 75.1367 2.10636C75.1367 0.577834 76.382 0.329263 76.382 0.329263" fill="black"/>
</svg>
