<svg width="30" height="30" viewBox="0 0 30 30" fill="none" xmlns="http://www.w3.org/2000/svg">
<path d="M14 16H15C15.2652 16 15.5196 15.8946 15.7071 15.7071C15.8946 15.5196 16 15.2652 16 15C16 14.7348 15.8946 14.4804 15.7071 14.2929C15.5196 14.1054 15.2652 14 15 14H14V16Z" fill="#D44D77"/>
<path fill-rule="evenodd" clip-rule="evenodd" d="M2 3C2 2.20435 2.31607 1.44129 2.87868 0.87868C3.44129 0.31607 4.20435 0 5 0L21.414 0L28 6.586V27C28 27.7956 27.6839 28.5587 27.1213 29.1213C26.5587 29.6839 25.7956 30 25 30H5C4.20435 30 3.44129 29.6839 2.87868 29.1213C2.31607 28.5587 2 27.7956 2 27V3ZM12 12H15C15.7956 12 16.5587 12.3161 17.1213 12.8787C17.6839 13.4413 18 14.2044 18 15C18 15.7956 17.6839 16.5587 17.1213 17.1213C16.5587 17.6839 15.7956 18 15 18H14V22H12V12ZM4.618 12.076C4.80068 12.0002 5.00174 11.9802 5.19576 12.0187C5.38978 12.0571 5.56804 12.1522 5.708 12.292L7 13.586L8.292 12.292C8.43186 12.1518 8.6102 12.0563 8.80442 12.0175C8.99864 11.9788 9.19998 11.9986 9.38293 12.0744C9.56587 12.1503 9.72218 12.2787 9.83204 12.4435C9.9419 12.6083 10.0004 12.802 10 13V22H8V15.414L7 16.414L6 15.414V22H4V13C4.00003 12.8021 4.05877 12.6087 4.16878 12.4442C4.27879 12.2797 4.43513 12.1516 4.618 12.076ZM22 12H20V18H24V22H26V12H24V16H22V12Z" fill="#D44D77"/>
</svg>
