<svg width="31" height="31" viewBox="0 0 31 31" fill="none" xmlns="http://www.w3.org/2000/svg">
<path d="M19.375 10.3333H19.3879M16.1458 27.125H7.75C6.72229 27.125 5.73666 26.7167 5.00996 25.99C4.28326 25.2633 3.875 24.2777 3.875 23.25V7.75C3.875 6.72229 4.28326 5.73666 5.00996 5.00996C5.73666 4.28326 6.72229 3.875 7.75 3.875H23.25C24.2777 3.875 25.2633 4.28326 25.99 5.00996C26.7167 5.73666 27.125 6.72229 27.125 7.75V16.1458" stroke="#0EA2F3" stroke-width="2" stroke-linecap="round" stroke-linejoin="round"/>
<path d="M3.875 20.6667L10.3333 14.2084C11.532 13.0549 13.0097 13.0549 14.2083 14.2084L18.7292 18.7292" stroke="#0EA2F3" stroke-width="2" stroke-linecap="round" stroke-linejoin="round"/>
<path d="M18.083 18.0834L19.3747 16.7917C20.2517 15.9482 21.2773 15.7209 22.2344 16.1123M24.5413 28.4167V20.6667M24.5413 20.6667L28.4163 24.5417M24.5413 20.6667L20.6663 24.5417" stroke="#0EA2F3" stroke-width="2" stroke-linecap="round" stroke-linejoin="round"/>
</svg>
