<svg width="31" height="31" viewBox="0 0 31 31" fill="none" xmlns="http://www.w3.org/2000/svg">
<g clip-path="url(#clip0_1_2635)">
<path d="M25.25 17.2128V26.2544C25.25 26.597 25.1139 26.9255 24.8717 27.1678C24.6294 27.41 24.3009 27.5461 23.9583 27.5461H5.875C5.53243 27.5461 5.20389 27.41 4.96165 27.1678C4.71942 26.9255 4.58333 26.597 4.58333 26.2544V17.2128H25.25ZM18.1458 3.00442C18.9088 3.00416 19.6593 3.19698 20.3277 3.56491C20.996 3.93285 21.5603 4.46394 21.9682 5.10872C22.376 5.7535 22.614 6.49099 22.66 7.25252C22.706 8.01405 22.5586 8.77484 22.2314 9.46405L26.5417 9.46275C26.8842 9.46275 27.2128 9.59884 27.455 9.84107C27.6973 10.0833 27.8333 10.4118 27.8333 10.7544V14.6294C27.8333 14.972 27.6973 15.3005 27.455 15.5428C27.2128 15.785 26.8842 15.9211 26.5417 15.9211H3.29167C2.9491 15.9211 2.62055 15.785 2.37832 15.5428C2.13609 15.3005 2 14.972 2 14.6294V10.7544C2 10.4118 2.13609 10.0833 2.37832 9.84107C2.62055 9.59884 2.9491 9.46275 3.29167 9.46275L7.60196 9.46405C7.14181 8.49745 7.0396 7.39893 7.31353 6.36404C7.58746 5.32915 8.21975 4.42505 9.09784 3.81268C9.97592 3.20032 11.0428 2.91942 12.1086 3.02001C13.1744 3.12059 14.1699 3.59613 14.918 4.36196C15.3378 3.93122 15.8398 3.58913 16.3943 3.35594C16.9487 3.12276 17.5443 3.00322 18.1458 3.00442ZM11.6875 5.58775C11.1898 5.58767 10.7112 5.7791 10.3508 6.12236C9.99047 6.46563 9.77602 6.9344 9.75194 7.4315C9.72786 7.9286 9.89599 8.4159 10.2215 8.79239C10.547 9.16888 11.0048 9.40569 11.5002 9.45371L11.6875 9.46275H13.625V7.52525C13.625 7.04361 13.4456 6.57925 13.1217 6.22271C12.7979 5.86618 12.3529 5.64303 11.8735 5.5968L11.6875 5.58775ZM18.1458 5.58775L17.9585 5.5968C17.5115 5.64021 17.0934 5.8376 16.7758 6.1552C16.4582 6.47281 16.2608 6.8909 16.2174 7.33796L16.2083 7.52525V9.46275H18.1458L18.3318 9.45371C18.8111 9.40725 19.2558 9.18401 19.5795 8.8275C19.9031 8.47098 20.0824 8.00674 20.0824 7.52525C20.0824 7.04376 19.9031 6.57952 19.5795 6.22301C19.2558 5.8665 18.8111 5.64326 18.3318 5.5968L18.1458 5.58775Z" fill="#587EC1"/>
</g>
<defs>
<clipPath id="clip0_1_2635">
<rect width="31" height="31" fill="white"/>
</clipPath>
</defs>
</svg>
