<svg width="30" height="25" viewBox="0 0 30 25" fill="none" xmlns="http://www.w3.org/2000/svg">
<path d="M28.9564 0.961769L29.9564 0.898308C29.9434 0.70954 29.8728 0.528649 29.7534 0.37828C29.634 0.227912 29.4712 0.114748 29.2852 0.0529573C29.0992 -0.00883375 28.8985 -0.0165066 28.708 0.0308995C28.5175 0.0783056 28.3458 0.178684 28.2144 0.319468L28.9564 0.961769ZM27.9604 6.6521C27.9604 6.39708 27.8551 6.15252 27.6675 5.97219C27.48 5.79187 27.2257 5.69057 26.9605 5.69057C26.6953 5.69057 26.4409 5.79187 26.2534 5.97219C26.0658 6.15252 25.9605 6.39708 25.9605 6.6521H27.9604ZM1.0012 22.1154V21.1539C0.786482 21.1536 0.577384 21.2198 0.404836 21.3427C0.232287 21.4656 0.105454 21.6386 0.0430975 21.8362C-0.0192588 22.0337 -0.0138257 22.2453 0.0585929 22.4397C0.131012 22.6341 0.266569 22.8009 0.445213 22.9154L1.0012 22.1154ZM2.99714 0.961769L3.93511 0.625234C3.86695 0.449674 3.74692 0.297092 3.58978 0.186246C3.43265 0.0754012 3.24525 0.0111242 3.05063 0.00131776C2.85601 -0.00848864 2.66265 0.036603 2.49432 0.131049C2.32599 0.225495 2.19004 0.365178 2.10317 0.532927L2.99714 0.961769ZM10.9849 18.2693L11.6929 18.9481C11.813 18.8323 11.9004 18.6888 11.9468 18.5314C11.9932 18.374 11.997 18.2079 11.958 18.0486C11.9189 17.8894 11.8383 17.7424 11.7236 17.6215C11.609 17.5006 11.4642 17.4098 11.3029 17.3578L10.9849 18.2693ZM25.4325 2.8329L24.6925 3.47905L25.0525 3.86174L25.5825 3.78482L25.4325 2.8329ZM27.9604 1.02523C28.0624 2.52137 27.9664 3.42905 27.7144 4.11366C27.4704 4.77712 27.0425 5.32326 26.2685 6.03672L27.6524 7.42517C28.5284 6.61748 29.2044 5.82518 29.6004 4.75596C29.9864 3.70597 30.0664 2.4906 29.9564 0.898308L27.9604 1.02523ZM27.9604 8.05208V6.6521H25.9605V8.05401H27.9604V8.05208ZM13.9808 6.80979V8.654H15.9808V6.80979H13.9808ZM13.9808 8.654V9.61553H15.9808V8.654H13.9808ZM21.0506 0.000240074C20.1212 0.00074501 19.2009 0.17728 18.3424 0.519765C17.4839 0.86225 16.7039 1.36398 16.047 1.9963C15.3902 2.62863 14.8693 3.37917 14.5141 4.20507C14.1589 5.03097 13.9763 5.91605 13.9768 6.80979H15.9768C15.9762 6.16843 16.1071 5.53325 16.362 4.94054C16.6168 4.34784 16.9906 3.80921 17.4619 3.35543C17.9333 2.90165 18.493 2.54162 19.1091 2.29589C19.7252 2.05016 20.3856 1.92355 21.0526 1.9233V0.000240074H21.0506ZM25.9585 8.05208C25.9605 16.352 18.9747 23.0769 10.3609 23.0769V25C20.0807 25 27.9604 17.4116 27.9604 8.05208H25.9585ZM2.06117 1.2983C3.14914 4.09058 7.22902 9.61553 14.9808 9.61553V7.69247C8.34899 7.69247 4.84309 2.96175 3.93311 0.625234L2.06117 1.2983ZM2.10317 0.532927C0.00922511 4.56366 -0.312766 8.47516 1.20919 11.8059C2.72715 15.127 5.99306 17.6808 10.6689 19.1808L11.3029 17.3578C6.99303 15.9732 4.2671 13.7193 3.03914 11.0309C1.81517 8.35208 1.99317 5.05019 3.89312 1.39061L2.10317 0.532927ZM10.2769 17.5905C9.07297 18.7501 5.45307 21.1539 1.0012 21.1539V23.0769C6.13305 23.0769 10.2349 20.3539 11.6929 18.9481L10.2769 17.5905ZM26.1745 2.18868C25.5279 1.49917 24.7378 0.948044 23.8554 0.571036C22.9731 0.194028 22.0182 -0.000441153 21.0526 0.000240074V1.9233C22.4946 1.9233 23.7926 2.52137 24.6925 3.47905L26.1745 2.18868ZM25.5825 3.78482C27.1756 3.53456 28.6304 2.76448 29.7024 1.60407L28.2144 0.319468C27.4519 1.1478 26.4171 1.69965 25.2825 1.88291L25.5825 3.78482ZM0.445213 22.9154C3.72712 25.0192 7.16702 25 10.3609 25V23.0769C7.10102 23.0769 4.2651 23.0558 1.55718 21.3154L0.445213 22.9154Z" fill="black"/>
</svg>
